<?xml version="1.0" encoding="UTF-8" standalone="no"?>
<svg
   version="1.1"
   viewBox="0 0 130.42638 25.899716"
   id="svg38"
   sodipodi:docname="PalmSens logo white.svg"
   width="130.42638"
   height="25.899715"
   inkscape:version="1.4.2 (f4327f4, 2025-05-13)"
   inkscape:export-filename="..\palmsenssdk\winforms\docs\modules\ROOT\images\banner.svg"
   inkscape:export-xdpi="96"
   inkscape:export-ydpi="96"
   xml:space="preserve"
   xmlns:inkscape="http://www.inkscape.org/namespaces/inkscape"
   xmlns:sodipodi="http://sodipodi.sourceforge.net/DTD/sodipodi-0.dtd"
   xmlns="http://www.w3.org/2000/svg"
   xmlns:svg="http://www.w3.org/2000/svg"><defs
     id="defs38" /><sodipodi:namedview
     id="namedview38"
     pagecolor="#000000"
     bordercolor="#000000"
     borderopacity="0.25"
     inkscape:showpageshadow="2"
     inkscape:pageopacity="0.0"
     inkscape:pagecheckerboard="0"
     inkscape:deskcolor="#d1d1d1"
     inkscape:zoom="14.938629"
     inkscape:cx="69.517757"
     inkscape:cy="31.428587"
     inkscape:window-width="3840"
     inkscape:window-height="2054"
     inkscape:window-x="2869"
     inkscape:window-y="-11"
     inkscape:window-maximized="1"
     inkscape:current-layer="Layer_1" /><!-- Generator: Adobe Illustrator 29.8.2, SVG Export Plug-In . SVG Version: 2.1.1 Build 3)  --><g
     id="Layer_3"
     display="none"
     transform="translate(-28.236008,-22.174919)"><path
       d="m 38.763,62.282 c 12.15,0 22.132,-9.43 23.03,-21.354 h -46.06 c 0.898,11.924 10.88,21.354 23.03,21.354 z"
       fill="none"
       id="path3" /><g
       id="g5"><path
         d="m 10.025,37.588 h 5.684 C 16.508,26.165 25.647,17.023 37.061,16.192 V 10.495 C 22.517,11.341 10.84,23.035 10.025,37.587 Z"
         fill="#28295e"
         id="path4" /><path
         d="M 67.5,40.956 H 61.803 C 60.972,52.37 51.83,61.509 40.407,62.308 v 5.684 C 54.959,67.177 66.653,55.5 67.499,40.956 Z"
         fill="#bbc8de"
         id="path5" /></g></g><g
     id="Layer_1"
     transform="translate(-28.236008,-22.174919)"
     style="display:inline"><g
       id="g29"
       style="display:none"><path
         d="m 58.483,48.499 h 3.896 v 0.665 h -3.107 v 1.886 h 2.725 v 0.665 h -2.725 v 2.716 H 58.483 V 48.5 Z"
         fill="#4b78ac"
         id="path17" /><path
         d="m 62.902,52.287 c 0,-0.316 0.044,-0.611 0.133,-0.885 0.088,-0.274 0.221,-0.512 0.398,-0.714 0.177,-0.202 0.395,-0.361 0.652,-0.478 0.257,-0.117 0.558,-0.175 0.901,-0.175 0.337,0 0.637,0.058 0.897,0.175 0.26,0.116 0.479,0.275 0.656,0.478 0.177,0.203 0.31,0.44 0.399,0.714 0.088,0.274 0.133,0.569 0.133,0.885 0,0.316 -0.044,0.609 -0.133,0.88 -0.089,0.271 -0.222,0.508 -0.399,0.71 -0.177,0.202 -0.396,0.361 -0.656,0.478 -0.26,0.117 -0.56,0.174 -0.897,0.174 -0.344,0 -0.644,-0.058 -0.901,-0.174 -0.258,-0.116 -0.475,-0.275 -0.652,-0.478 -0.177,-0.203 -0.31,-0.439 -0.398,-0.71 -0.089,-0.271 -0.133,-0.565 -0.133,-0.88 z m 0.748,0 c 0,0.26 0.034,0.491 0.104,0.693 0.07,0.202 0.165,0.371 0.287,0.507 0.122,0.136 0.265,0.24 0.428,0.312 0.164,0.072 0.336,0.108 0.52,0.108 0.184,0 0.355,-0.036 0.519,-0.108 0.163,-0.072 0.306,-0.176 0.428,-0.312 0.122,-0.136 0.217,-0.305 0.287,-0.507 0.07,-0.202 0.104,-0.433 0.104,-0.693 0,-0.26 -0.035,-0.492 -0.104,-0.694 -0.069,-0.202 -0.165,-0.372 -0.287,-0.511 -0.122,-0.138 -0.265,-0.244 -0.428,-0.316 -0.164,-0.072 -0.336,-0.108 -0.519,-0.108 -0.183,0 -0.356,0.036 -0.52,0.108 -0.163,0.072 -0.306,0.178 -0.428,0.316 -0.122,0.139 -0.217,0.309 -0.287,0.511 -0.07,0.202 -0.104,0.434 -0.104,0.694 z"
         fill="#4b78ac"
         id="path18" /><path
         d="m 67.878,50.136 h 0.665 v 0.905 h 0.017 c 0.171,-0.349 0.382,-0.606 0.631,-0.772 0.249,-0.167 0.565,-0.244 0.947,-0.233 v 0.748 c -0.282,0 -0.523,0.039 -0.723,0.116 -0.2,0.077 -0.36,0.191 -0.482,0.34 -0.122,0.149 -0.21,0.333 -0.266,0.548 -0.056,0.216 -0.083,0.46 -0.083,0.731 v 1.911 h -0.706 z"
         fill="#4b78ac"
         id="path19" /><path
         d="m 73.095,48.499 h 2.035 c 0.914,0 1.617,0.232 2.11,0.698 0.493,0.465 0.739,1.174 0.739,2.126 0,0.499 -0.055,0.94 -0.166,1.325 -0.111,0.385 -0.282,0.709 -0.515,0.972 -0.232,0.263 -0.529,0.464 -0.889,0.603 -0.36,0.138 -0.787,0.208 -1.279,0.208 H 73.095 V 48.5 Z m 0.789,5.267 h 1.312 c 0.088,0 0.199,-0.007 0.333,-0.021 0.133,-0.014 0.274,-0.047 0.423,-0.1 0.15,-0.052 0.298,-0.128 0.444,-0.229 0.147,-0.1 0.278,-0.235 0.395,-0.407 0.116,-0.172 0.211,-0.386 0.286,-0.644 0.075,-0.257 0.112,-0.569 0.112,-0.935 0,-0.354 -0.035,-0.671 -0.104,-0.951 -0.069,-0.28 -0.183,-0.517 -0.34,-0.71 -0.157,-0.193 -0.361,-0.343 -0.61,-0.449 -0.25,-0.105 -0.557,-0.158 -0.922,-0.158 h -1.329 v 4.602 z"
         fill="#4b78ac"
         id="path20" /><path
         d="m 82.498,53.068 c -0.094,0.477 -0.302,0.839 -0.624,1.088 -0.322,0.249 -0.727,0.374 -1.215,0.374 -0.344,0 -0.643,-0.057 -0.895,-0.17 -0.253,-0.113 -0.465,-0.27 -0.637,-0.469 -0.172,-0.199 -0.301,-0.438 -0.387,-0.714 -0.086,-0.277 -0.135,-0.579 -0.146,-0.905 0,-0.321 0.05,-0.619 0.15,-0.893 0.1,-0.274 0.239,-0.511 0.419,-0.71 0.18,-0.199 0.393,-0.354 0.64,-0.465 0.246,-0.111 0.516,-0.167 0.81,-0.167 0.382,0 0.699,0.079 0.951,0.237 0.252,0.158 0.454,0.359 0.606,0.603 0.152,0.244 0.258,0.509 0.316,0.797 0.058,0.288 0.082,0.562 0.07,0.822 h -3.214 c -0.006,0.188 0.017,0.367 0.066,0.536 0.05,0.169 0.13,0.319 0.241,0.449 0.111,0.13 0.252,0.234 0.424,0.312 0.171,0.078 0.374,0.116 0.606,0.116 0.293,0 0.537,-0.069 0.731,-0.208 0.194,-0.138 0.321,-0.349 0.382,-0.631 h 0.706 z m -0.689,-1.196 c -0.011,-0.166 -0.048,-0.324 -0.112,-0.474 -0.064,-0.149 -0.15,-0.278 -0.258,-0.386 -0.108,-0.108 -0.237,-0.194 -0.386,-0.257 -0.149,-0.063 -0.31,-0.096 -0.482,-0.096 -0.183,0 -0.347,0.032 -0.494,0.096 -0.146,0.063 -0.273,0.151 -0.378,0.262 -0.105,0.111 -0.188,0.24 -0.249,0.386 -0.061,0.147 -0.097,0.303 -0.108,0.469 z"
         fill="#4b78ac"
         id="path21" /><path
         d="m 85.223,54.43 h -0.756 l -1.595,-4.294 h 0.789 l 1.205,3.58 h 0.017 l 1.171,-3.58 h 0.739 z"
         fill="#4b78ac"
         id="path22" /><path
         d="m 91.112,53.068 c -0.094,0.477 -0.302,0.839 -0.624,1.088 -0.322,0.249 -0.727,0.374 -1.215,0.374 -0.344,0 -0.643,-0.057 -0.895,-0.17 -0.253,-0.113 -0.465,-0.27 -0.637,-0.469 -0.172,-0.199 -0.301,-0.438 -0.387,-0.714 -0.086,-0.277 -0.135,-0.579 -0.146,-0.905 0,-0.321 0.05,-0.619 0.15,-0.893 0.1,-0.274 0.239,-0.511 0.419,-0.71 0.18,-0.199 0.393,-0.354 0.64,-0.465 0.246,-0.111 0.516,-0.167 0.81,-0.167 0.382,0 0.699,0.079 0.951,0.237 0.252,0.158 0.454,0.359 0.606,0.603 0.152,0.244 0.258,0.509 0.316,0.797 0.058,0.288 0.082,0.562 0.07,0.822 h -3.214 c -0.006,0.188 0.017,0.367 0.066,0.536 0.05,0.169 0.13,0.319 0.241,0.449 0.111,0.13 0.252,0.234 0.424,0.312 0.171,0.078 0.374,0.116 0.606,0.116 0.293,0 0.537,-0.069 0.731,-0.208 0.194,-0.138 0.321,-0.349 0.382,-0.631 h 0.706 z m -0.69,-1.196 c -0.011,-0.166 -0.048,-0.324 -0.112,-0.474 -0.064,-0.149 -0.15,-0.278 -0.258,-0.386 -0.108,-0.108 -0.237,-0.194 -0.386,-0.257 -0.149,-0.063 -0.31,-0.096 -0.482,-0.096 -0.183,0 -0.347,0.032 -0.494,0.096 -0.146,0.063 -0.273,0.151 -0.378,0.262 -0.105,0.111 -0.188,0.24 -0.249,0.386 -0.061,0.147 -0.097,0.303 -0.108,0.469 z"
         fill="#4b78ac"
         id="path23" /><path
         d="m 91.942,48.499 h 0.706 v 5.931 h -0.706 z"
         fill="#4b78ac"
         id="path24" /><path
         d="m 93.512,52.287 c 0,-0.316 0.044,-0.611 0.133,-0.885 0.088,-0.274 0.221,-0.512 0.398,-0.714 0.177,-0.202 0.395,-0.361 0.652,-0.478 0.257,-0.117 0.558,-0.175 0.901,-0.175 0.337,0 0.637,0.058 0.897,0.175 0.26,0.116 0.479,0.275 0.656,0.478 0.177,0.203 0.31,0.44 0.399,0.714 0.088,0.274 0.133,0.569 0.133,0.885 0,0.316 -0.044,0.609 -0.133,0.88 -0.089,0.271 -0.222,0.508 -0.399,0.71 -0.177,0.202 -0.396,0.361 -0.656,0.478 -0.26,0.117 -0.56,0.174 -0.897,0.174 -0.344,0 -0.644,-0.058 -0.901,-0.174 -0.258,-0.116 -0.475,-0.275 -0.652,-0.478 -0.177,-0.203 -0.31,-0.439 -0.398,-0.71 -0.089,-0.271 -0.133,-0.565 -0.133,-0.88 z m 0.748,0 c 0,0.26 0.034,0.491 0.104,0.693 0.07,0.202 0.165,0.371 0.287,0.507 0.122,0.136 0.265,0.24 0.428,0.312 0.164,0.072 0.336,0.108 0.52,0.108 0.184,0 0.355,-0.036 0.519,-0.108 0.163,-0.072 0.306,-0.176 0.428,-0.312 0.122,-0.136 0.217,-0.305 0.287,-0.507 0.07,-0.202 0.104,-0.433 0.104,-0.693 0,-0.26 -0.035,-0.492 -0.104,-0.694 -0.069,-0.202 -0.165,-0.372 -0.287,-0.511 -0.122,-0.138 -0.265,-0.244 -0.428,-0.316 -0.164,-0.072 -0.336,-0.108 -0.519,-0.108 -0.183,0 -0.356,0.036 -0.52,0.108 -0.163,0.072 -0.306,0.178 -0.428,0.316 -0.122,0.139 -0.217,0.309 -0.287,0.511 -0.07,0.202 -0.104,0.434 -0.104,0.694 z"
         fill="#4b78ac"
         id="path25" /><path
         d="m 98.538,50.136 h 0.706 v 0.581 h 0.017 c 0.116,-0.238 0.299,-0.411 0.548,-0.519 0.249,-0.108 0.523,-0.162 0.822,-0.162 0.332,0 0.622,0.061 0.868,0.183 0.246,0.122 0.451,0.287 0.615,0.494 0.163,0.208 0.287,0.447 0.37,0.718 0.083,0.271 0.125,0.56 0.125,0.864 0,0.304 -0.04,0.593 -0.121,0.864 -0.08,0.271 -0.202,0.508 -0.365,0.71 -0.164,0.202 -0.369,0.363 -0.615,0.481 -0.247,0.119 -0.533,0.179 -0.86,0.179 -0.111,0 -0.23,-0.011 -0.357,-0.033 -0.127,-0.022 -0.254,-0.06 -0.382,-0.112 -0.127,-0.052 -0.248,-0.122 -0.361,-0.208 -0.114,-0.086 -0.209,-0.192 -0.287,-0.32 h -0.017 v 2.218 h -0.706 v -5.939 z m 3.323,2.11 c 0,-0.2 -0.026,-0.395 -0.079,-0.586 -0.053,-0.191 -0.133,-0.361 -0.241,-0.511 -0.108,-0.15 -0.247,-0.269 -0.416,-0.357 -0.169,-0.089 -0.367,-0.133 -0.594,-0.133 -0.238,0 -0.44,0.047 -0.606,0.142 -0.166,0.095 -0.302,0.217 -0.407,0.37 -0.105,0.152 -0.181,0.325 -0.229,0.519 -0.047,0.194 -0.07,0.39 -0.07,0.59 0,0.21 0.025,0.414 0.075,0.61 0.05,0.197 0.129,0.37 0.237,0.519 0.108,0.15 0.248,0.27 0.419,0.362 0.171,0.091 0.379,0.137 0.623,0.137 0.238,0 0.44,-0.047 0.606,-0.141 0.166,-0.094 0.299,-0.219 0.398,-0.374 0.1,-0.155 0.172,-0.332 0.216,-0.531 0.044,-0.2 0.066,-0.404 0.066,-0.615 z"
         fill="#4b78ac"
         id="path26" /><path
         d="m 107.11,53.068 c -0.094,0.477 -0.302,0.839 -0.624,1.088 -0.322,0.249 -0.727,0.374 -1.215,0.374 -0.344,0 -0.643,-0.057 -0.895,-0.17 -0.253,-0.113 -0.465,-0.27 -0.637,-0.469 -0.172,-0.199 -0.301,-0.438 -0.387,-0.714 -0.086,-0.277 -0.135,-0.579 -0.146,-0.905 0,-0.321 0.05,-0.619 0.15,-0.893 0.1,-0.274 0.239,-0.511 0.419,-0.71 0.18,-0.199 0.393,-0.354 0.64,-0.465 0.246,-0.111 0.516,-0.167 0.81,-0.167 0.382,0 0.699,0.079 0.951,0.237 0.252,0.158 0.454,0.359 0.606,0.603 0.152,0.244 0.258,0.509 0.316,0.797 0.058,0.288 0.082,0.562 0.07,0.822 h -3.214 c -0.006,0.188 0.017,0.367 0.066,0.536 0.05,0.169 0.13,0.319 0.241,0.449 0.111,0.13 0.252,0.234 0.424,0.312 0.171,0.078 0.374,0.116 0.606,0.116 0.293,0 0.537,-0.069 0.731,-0.208 0.194,-0.138 0.321,-0.349 0.382,-0.631 h 0.706 z m -0.689,-1.196 c -0.011,-0.166 -0.048,-0.324 -0.112,-0.474 -0.064,-0.149 -0.15,-0.278 -0.258,-0.386 -0.108,-0.108 -0.237,-0.194 -0.386,-0.257 -0.149,-0.063 -0.31,-0.096 -0.482,-0.096 -0.183,0 -0.347,0.032 -0.494,0.096 -0.146,0.063 -0.273,0.151 -0.378,0.262 -0.105,0.111 -0.188,0.24 -0.249,0.386 -0.061,0.147 -0.097,0.303 -0.108,0.469 z"
         fill="#4b78ac"
         id="path27" /><path
         d="m 107.875,50.136 h 0.665 v 0.905 h 0.017 c 0.171,-0.349 0.382,-0.606 0.631,-0.772 0.249,-0.167 0.565,-0.244 0.947,-0.233 v 0.748 c -0.282,0 -0.523,0.039 -0.723,0.116 -0.2,0.077 -0.36,0.191 -0.482,0.34 -0.122,0.149 -0.21,0.333 -0.266,0.548 -0.056,0.216 -0.083,0.46 -0.083,0.731 v 1.911 h -0.706 z"
         fill="#4b78ac"
         id="path28" /><path
         d="m 111.097,53.076 c 0.006,0.161 0.042,0.293 0.108,0.399 0.066,0.105 0.153,0.189 0.262,0.253 0.108,0.064 0.229,0.11 0.365,0.137 0.136,0.028 0.275,0.042 0.419,0.042 0.111,0 0.227,-0.008 0.349,-0.025 0.122,-0.017 0.234,-0.047 0.336,-0.091 0.102,-0.044 0.187,-0.109 0.253,-0.195 0.066,-0.085 0.1,-0.195 0.1,-0.328 0,-0.138 -0.041,-0.25 -0.121,-0.336 -0.08,-0.085 -0.186,-0.156 -0.315,-0.212 -0.13,-0.055 -0.28,-0.101 -0.449,-0.137 -0.169,-0.036 -0.342,-0.073 -0.519,-0.112 -0.177,-0.039 -0.349,-0.086 -0.515,-0.141 -0.166,-0.055 -0.316,-0.127 -0.449,-0.216 -0.133,-0.089 -0.24,-0.202 -0.32,-0.341 -0.08,-0.138 -0.12,-0.31 -0.12,-0.515 0,-0.216 0.048,-0.401 0.145,-0.557 0.097,-0.155 0.222,-0.281 0.374,-0.378 0.152,-0.097 0.324,-0.169 0.515,-0.216 0.191,-0.047 0.38,-0.071 0.569,-0.071 0.238,0 0.461,0.021 0.668,0.062 0.208,0.042 0.391,0.114 0.548,0.216 0.158,0.103 0.284,0.241 0.378,0.416 0.094,0.175 0.15,0.392 0.167,0.652 h -0.706 c -0.011,-0.138 -0.049,-0.253 -0.112,-0.345 -0.064,-0.091 -0.141,-0.165 -0.232,-0.22 -0.092,-0.056 -0.194,-0.096 -0.308,-0.121 -0.114,-0.025 -0.229,-0.038 -0.345,-0.038 -0.105,0 -0.212,0.009 -0.32,0.025 -0.108,0.016 -0.207,0.046 -0.295,0.088 -0.088,0.042 -0.161,0.099 -0.216,0.171 -0.056,0.072 -0.083,0.162 -0.083,0.268 0,0.128 0.042,0.231 0.128,0.309 0.086,0.078 0.195,0.144 0.328,0.197 0.133,0.053 0.283,0.098 0.449,0.134 0.166,0.036 0.333,0.074 0.499,0.112 0.177,0.039 0.35,0.085 0.519,0.141 0.169,0.056 0.318,0.128 0.449,0.22 0.13,0.091 0.235,0.206 0.315,0.343 0.08,0.138 0.121,0.309 0.121,0.514 0,0.254 -0.054,0.468 -0.162,0.642 -0.108,0.174 -0.249,0.313 -0.424,0.418 -0.174,0.104 -0.371,0.179 -0.589,0.224 -0.219,0.044 -0.437,0.066 -0.652,0.066 -0.244,0 -0.472,-0.026 -0.685,-0.079 -0.213,-0.053 -0.403,-0.136 -0.569,-0.25 -0.166,-0.113 -0.299,-0.263 -0.398,-0.449 -0.1,-0.185 -0.155,-0.411 -0.167,-0.677 h 0.706 z"
         fill="#4b78ac"
         id="path29" /></g><g
       id="g38"
       style="display:inline;fill:#ffffff"><path
         d="m 122.463,36.856 c -0.377,-0.718 -1.556,-1.521 -2.592,-2.145 -0.655,-0.396 -3.306,-2.005 -3.796,-2.4 -0.45,-0.362 -1.13,-1.165 -1.326,-1.666 -0.29,-0.741 -0.152,-1.456 -0.015,-2.228 0.241,-1.369 1.96,-2.227 3.328,-1.909 1.709,0.397 2.272,1.679 2.671,3.189 0.058,0.218 0.155,0.906 0.313,1.004 0.423,0.262 1.043,0.08 1.086,-0.366 0.088,-0.904 -0.018,-1.89 -0.089,-2.797 -0.063,-0.773 -0.666,-1.154 -1.43,-1.437 -0.782,-0.293 -1.632,-0.539 -2.485,-0.539 -1.544,0 -3.222,0.418 -4.343,1.469 -1.217,1.141 -1.8,2.438 -1.867,4.067 -0.05,1.195 0.364,1.914 1.507,2.986 0.691,0.646 2.297,1.616 3.091,2.062 0.794,0.445 2.798,1.449 3.396,2.063 0.916,0.943 0.609,1.922 0.444,2.744 -0.126,0.618 -0.428,1.275 -0.906,1.665 -1.144,0.936 -2.876,1.203 -4.281,0.534 -1.599,-0.761 -2.468,-2.225 -2.468,-3.923 0,-0.337 0.012,-0.734 -0.404,-0.734 -0.61,0 -0.621,0.243 -0.621,0.784 0,0.986 0.061,1.967 0.061,2.953 0,1.581 2.292,1.931 3.524,2.12 1.502,0.231 3.423,0.04 4.733,-0.664 1.109,-0.594 1.935,-1.512 2.471,-2.595 0.22,-0.445 0.527,-1.239 0.481,-2.132 -0.046,-0.893 -0.105,-1.391 -0.481,-2.106 z"
         fill="#28295e"
         id="path30"
         style="fill:#ffffff" /><path
         d="m 63.378,36.933 v 0 c 1.025,0.544 2.547,0.624 3.218,0.624 0.395,0 1.436,-0.192 1.788,-0.373 1.259,-0.649 1.903,-2.145 2.23,-3.435 0.175,-0.691 0.236,-1.436 0.191,-2.147 -0.03,-0.485 -0.11,-1.2 -0.205,-1.68 -0.092,-0.468 -0.298,-0.968 -0.561,-1.45 -0.276,-0.503 -0.55,-0.775 -0.943,-1.157 -0.949,-0.923 -2.542,-0.927 -3.79,-0.927 -1.34,0 -2.68,0.057 -3.987,0.057 -0.882,0 -1.747,-0.175 -2.644,-0.065 -0.345,0.041 -0.44,0.646 -0.015,0.646 0.405,0 1.047,0.126 1.357,0.405 0.535,0.479 0.637,1.461 0.637,2.103 v 11.122 c 0,0.538 -0.067,1.421 -0.313,1.903 -0.358,0.705 -1.03,0.87 -1.828,0.87 -0.374,0 -0.503,0.65 -0.205,0.867 0.248,0.182 1.128,-0.098 1.414,-0.115 0.924,-0.059 1.853,-0.059 2.781,-0.059 0.453,0 0.9,0.005 1.349,0.059 0.405,0.049 0.904,0.217 1.293,0.115 0.316,-0.081 0.446,-0.727 0.265,-0.868 -0.271,-0.213 -1.02,-0.128 -1.395,-0.219 -0.816,-0.202 -0.638,-1.605 -0.638,-2.22 v -4.054 z m -0.119,-9.389 c 1.352,-0.719 3.092,-0.298 3.892,0.986 0.776,1.246 0.706,3.018 0.53,4.405 -0.154,1.207 -0.633,3.022 -2.064,3.362 -0.75,0.177 -1.987,-0.031 -2.239,-0.783 -0.172,-0.512 -0.118,-1.625 -0.118,-2.216 v -5.753 0 z"
         fill="#28295e"
         id="path31"
         style="fill:#ffffff" /><path
         d="m 82.603,42.053 c -0.476,-0.147 -0.586,0.105 -0.934,0.357 -1.872,1.347 -1.473,-1.876 -1.473,-2.742 v -2.235 c 0,-0.735 -0.042,-2.947 -0.057,-3.182 -0.017,-0.289 -0.047,-0.592 -0.17,-0.877 -0.186,-0.442 -0.854,-0.963 -1.247,-1.095 -0.638,-0.215 -1.293,-0.165 -1.983,-0.165 -1.334,0 -2.675,0.625 -3.625,1.533 -0.482,0.461 -2.579,2.74 -1.163,3.202 1.479,0.485 1.879,-1.192 2.381,-2.161 0.491,-0.95 1.466,-2.037 2.691,-1.588 0.959,0.351 0.804,1.665 0.804,2.488 0,0.194 -0.02,0.814 -0.038,1.596 0,0 -3.009,0.774 -4.157,1.452 -1.146,0.678 -1.311,1.04 -1.595,1.475 -0.75,1.145 -0.879,2.675 0.169,3.722 0.624,0.622 1.969,0.798 2.779,0.411 1.079,-0.515 1.845,-1.05 2.717,-1.886 -0.03,0.632 0.632,1.4 1.134,1.748 0.564,0.394 1.354,0.444 1.987,0.139 0.645,-0.314 1.217,-0.781 1.64,-1.343 0.128,-0.168 0.545,-0.723 0.141,-0.848 z m -4.844,-3.367 v 1.808 c -0.393,0.948 -1.837,3.269 -3.129,2.011 -0.973,-0.945 -0.34,-3.355 0.598,-3.718 0.937,-0.363 2.544,-0.93 2.544,-0.93 -0.008,0.323 -0.013,0.828 -0.013,0.828 z"
         fill="#28295e"
         id="path32"
         style="fill:#ffffff" /><path
         d="m 87.393,37.609 v -11.633 0 c 0.15,-0.986 -1.247,0.08 -1.475,0.223 -0.688,0.433 -1.477,0.504 -2.238,0.751 -0.27,0.089 -0.408,0.66 -0.197,0.864 0.268,0.264 0.86,0.097 1.048,0.558 0.18,0.443 0.142,1.327 0.142,1.94 v 10.132 0 c 0,0.818 -0.02,1.827 -0.129,2.453 -0.082,0.478 -0.63,0.497 -1.047,0.546 -0.466,0.057 -0.468,0.15 -0.468,0.593 0,0.478 1.349,0.162 2.141,0.094 0.883,-0.076 1.695,-0.005 2.573,0.098 0.268,0.031 1.409,0.19 1.405,-0.19 -0.003,-0.323 0.065,-0.594 -0.404,-0.617 -0.469,-0.023 -1.237,0.064 -1.351,-0.69 -0.093,-0.619 0,-1.597 0,-2.361 v -2.76 z"
         fill="#28295e"
         id="path33"
         style="fill:#ffffff" /><path
         d="M 108.848,37.609 V 35.74 c 0,-0.67 -0.304,-1.22 -0.566,-1.592 -0.679,-0.965 -2.104,-2.251 -3.683,-1.921 -1.325,0.276 -2.626,1.374 -3.287,2.589 -0.722,-1.425 -2.209,-2.698 -3.853,-2.589 -1.437,0.096 -2.666,1.174 -3.415,2.255 v -2.255 c 0,-0.445 -0.944,0.526 -1.004,0.584 -0.398,0.39 -0.91,0.837 -1.413,1.085 -0.298,0.147 -1.784,0.626 -1.42,1.088 0.211,0.268 1.114,-0.034 1.218,0.474 0.106,0.506 0.141,2.152 0.141,2.152 l 0.008,1.275 v 1.56 0 c 0,0.818 -0.02,1.827 -0.128,2.453 -0.082,0.478 -0.631,0.497 -1.047,0.546 -0.467,0.057 -0.468,0.15 -0.468,0.593 0,0.478 1.747,0.049 2.096,0.025 0.885,-0.06 1.786,0.012 2.663,0.114 0.372,0.043 1.782,0.346 1.358,-0.503 -0.306,-0.617 -1.729,0.036 -1.877,-0.943 -0.091,-0.619 -0.097,-1.597 -0.097,-2.361 v -4.661 0 c 0.727,-1.31 2.429,-2.302 3.835,-1.27 0.44,0.323 0.815,0.866 0.909,1.548 0.04,0.295 0.112,0.587 0.112,0.891 v 3.567 0 c 0,0.818 -0.067,1.827 -0.172,2.453 -0.08,0.478 -0.616,0.497 -1.024,0.546 -0.454,0.057 -0.456,0.15 -0.456,0.593 0,0.478 1.704,0.049 2.047,0.025 0.863,-0.06 1.744,0.012 2.6,0.114 0.364,0.043 1.74,0.346 1.328,-0.503 -0.299,-0.617 -1.502,0.036 -1.646,-0.943 -0.09,-0.619 -0.069,-1.597 -0.069,-2.361 v -1.485 l -0.003,-1.275 v -0.926 c 0,-0.471 -0.023,-0.742 0.228,-1.143 0.225,-0.36 0.493,-0.651 0.792,-0.946 0.766,-0.753 2.16,-0.779 2.933,-0.014 0.577,0.571 0.807,1.383 0.807,2.176 v 3.687 0 c 0,0.818 0.101,1.827 0,2.453 -0.08,0.478 -0.789,0.497 -1.189,0.546 -0.443,0.057 -0.444,0.15 -0.444,0.593 0,0.478 1.665,0.049 2,0.025 0.843,-0.06 1.704,0.012 2.541,0.114 0.354,0.043 1.699,0.346 1.297,-0.503 -0.292,-0.617 -1.468,0.036 -1.609,-0.943 -0.087,-0.619 -0.067,-1.597 -0.067,-2.361 v -1.485 l 0.021,-1.275 z"
         fill="#28295e"
         id="path34"
         style="fill:#ffffff" /><path
         d="m 132.001,37.132 v 0 c -0.011,0.03 0,0 0,0 z"
         fill="#28295e"
         id="path35"
         style="fill:#ffffff" /><path
         d="m 130.85,32.14 c -2.809,-0.375 -5.199,1.364 -6.178,3.759 -0.143,0.354 -0.242,0.601 -0.323,0.963 -0.067,0.296 -0.138,0.602 -0.138,0.602 v 1.229 c 0.125,2.768 2.368,5.566 5.393,5.747 1.393,0.085 3.153,-0.529 4.236,-1.385 0.541,-0.426 0.979,-0.858 1.205,-1.461 0.188,-0.504 -0.041,-1.022 -0.513,-0.348 -0.644,0.924 -1.928,1.294 -3.013,1.42 -1.596,0.185 -2.609,-0.543 -3.106,-1.125 -0.497,-0.582 -1.57,-1.652 -1.437,-4.076 h 8.121 c 0.006,-0.02 0.021,-0.06 0.058,-0.168 0.625,-2.646 -1.719,-4.811 -4.306,-5.155 z m 0.105,4.296 h -3.902 c 0.36,-1.373 0.931,-2.438 2.182,-3.223 1.187,-0.744 3.317,0.237 3.2,1.666 0.133,0.844 -0.623,1.557 -1.481,1.557 z"
         fill="#28295e"
         id="path36"
         style="fill:#ffffff" /><path
         d="m 155.249,37.156 c -3.311,-1.4 -3.152,-2.562 -2.489,-3.394 0.644,-0.807 2.355,-0.809 3.358,-0.286 1.02,0.532 0.803,1.835 1.308,2.183 0.521,0.359 0.668,-0.361 0.702,-0.71 0.059,-0.598 0.143,-1.75 -0.324,-2.154 -0.515,-0.446 -3.261,-1.349 -5.68,-0.108 -0.994,0.51 -1.804,1.766 -1.894,2.592 -0.059,0.536 -0.184,1.095 0.485,1.914 0.67,0.818 3.047,1.42 4.195,2.128 1.148,0.708 2.127,1.51 1.506,2.875 -0.219,0.479 -0.339,0.601 -0.835,0.911 -0.588,0.367 -1.541,0.414 -2.179,0.377 -1.391,-0.078 -2.042,-1.766 -2.261,-2.791 -0.046,-0.223 -0.132,-0.702 -0.367,-0.836 -0.402,-0.225 -0.552,0.155 -0.588,0.439 -0.104,0.848 0,1.764 0,2.618 0,1.219 2.065,1.583 3.152,1.583 1.584,0 3.009,-0.293 4.13,-1.353 1.092,-1.025 1.344,-1.983 1.119,-3.196 -0.225,-1.212 -2.126,-2.281 -3.338,-2.794 z"
         fill="#28295e"
         id="path37"
         style="fill:#ffffff" /><path
         d="m 148.046,37.501 c 0,-0.743 -0.079,-2.072 -0.298,-2.66 -0.19,-0.506 -0.372,-0.845 -0.652,-1.225 -0.688,-0.936 -2.005,-1.504 -3.087,-1.504 -0.755,0 -1.314,0.206 -1.984,0.529 -0.383,0.186 -0.775,0.456 -1.077,0.752 -0.326,0.319 -0.861,0.725 -1.02,1.17 v -2.187 c 0,-0.592 -0.573,-0.099 -0.793,0.126 -0.378,0.39 -0.783,0.874 -1.263,1.156 -0.521,0.308 -1.27,0.498 -1.696,0.915 -0.475,0.467 0.831,0.682 1.02,0.868 0.36,0.353 0.503,0.727 0.52,1.198 0.004,0.171 -0.002,0.836 -0.002,0.836 l 0.002,1.281 v 2.283 c 0,0.167 -0.004,1.269 -0.107,1.895 -0.077,0.478 -0.876,0.482 -1.269,0.532 -0.439,0.057 -0.441,0.15 -0.441,0.593 0,0.478 1.271,0.162 2.017,0.094 0.832,-0.076 1.597,-0.005 2.424,0.098 0.252,0.031 1.327,0.19 1.324,-0.19 -0.003,-0.323 0.061,-0.594 -0.381,-0.617 -0.442,-0.023 -1.118,0.042 -1.226,-0.712 -0.088,-0.619 -0.072,-2.094 -0.072,-2.374 0,-0.41 0.008,-1.616 0.008,-1.616 l -0.008,-1.282 v -0.557 c 0,-0.965 0.184,-1.375 0.749,-2.115 0.427,-0.562 1.475,-0.812 2.141,-0.837 1.572,-0.059 2.431,0.755 2.677,2.203 0.035,0.209 0.098,1.347 0.098,1.347 l 0.017,1.24 v 2.283 c 0,0 0,1.24 -0.102,1.866 -0.077,0.478 -0.789,0.527 -1.182,0.576 -0.439,0.057 -0.441,0.15 -0.441,0.593 0,0.478 1.271,0.162 2.017,0.094 0.832,-0.076 1.597,-0.005 2.424,0.098 0.252,0.031 1.327,0.19 1.324,-0.19 -0.003,-0.323 0.061,-0.594 -0.381,-0.617 -0.442,-0.023 -1.118,0.042 -1.226,-0.712 -0.088,-0.619 -0.072,-2.094 -0.072,-2.374 0,0 0.017,-2.113 0.017,-2.856 z"
         fill="#28295e"
         id="path38"
         style="fill:#ffffff" /></g><path
       d="m 32.319585,27.94063 h 4.091116 v 0.72267 h -3.292164 v 1.790616 h 2.894695 v 0.702596 h -2.894695 v 2.681909 h -0.798952 z m 6.556224,5.43207 q 0.718655,0 0.983634,-0.542002 0.268994,-0.546018 0.268994,-1.21248 0,-0.602225 -0.192712,-0.97962 -0.305127,-0.594195 -1.051886,-0.594195 -0.662448,0 -0.963561,0.505869 -0.301112,0.505869 -0.301112,1.220509 0,0.686537 0.301112,1.144228 0.301113,0.457691 0.955531,0.457691 z m 0.0281,-3.958626 q 0.83107,0 1.405192,0.554047 0.574121,0.554047 0.574121,1.630023 0,1.039842 -0.505869,1.718348 -0.505869,0.678507 -1.5698,0.678507 -0.887279,0 -1.409207,-0.59821 -0.521928,-0.602225 -0.521928,-1.613963 0,-1.084005 0.550032,-1.726379 0.550032,-0.642373 1.477459,-0.642373 z m -0.02409,0.02007 z m 2.882651,0.104386 h 0.686536 v 0.742744 q 0.08431,-0.216801 0.413528,-0.525943 0.329216,-0.313157 0.758804,-0.313157 0.02007,0 0.06825,0.004 0.04818,0.004 0.164608,0.01606 v 0.762818 q -0.06424,-0.01204 -0.120445,-0.01606 -0.05219,-0.004 -0.11643,-0.004 -0.546018,0 -0.8391,0.353306 -0.293083,0.34929 -0.293083,0.806981 v 2.473138 h -0.72267 z m 5.17512,3.424653 h 0.8391 v 0.875234 h -0.8391 z m 2.208159,-5.022557 h 0.943486 l 2.979006,4.777652 V 27.94063 h 0.758804 v 5.897791 h -0.895308 l -3.02317,-4.773638 v 4.773638 h -0.762818 z m 2.288455,0 z m 3.725765,0 h 4.299887 v 0.72267 h -3.521009 v 1.790616 h 3.25603 v 0.682522 h -3.25603 v 1.999387 h 3.581232 v 0.702596 h -4.36011 z m 2.180055,0 z m 7.519785,0 v 0.702596 h -1.987343 v 5.195195 H 62.061475 V 28.643226 H 60.074132 V 27.94063 Z m 2.850533,0 h 1.144227 l 1.69426,4.986424 1.682216,-4.986424 h 1.132183 v 5.897791 H 72.604429 V 30.35756 q 0,-0.180668 0.008,-0.59821 0.008,-0.417543 0.008,-0.895308 l -1.682216,4.974379 h -0.790922 l -1.69426,-4.974379 v 0.180667 q 0,0.216801 0.008,0.662448 0.01204,0.441632 0.01204,0.650403 v 3.480861 h -0.762818 z m 9.896563,3.480861 -0.895308,-2.605627 -0.951516,2.605627 z M 76.294059,27.94063 h 0.903338 l 2.139906,5.897791 h -0.875234 l -0.59821,-1.766527 h -2.332618 l -0.638359,1.766527 h -0.819026 z m 0.413528,0 z m 4.223607,0 v 3.645469 q 0,0.642374 0.24089,1.067946 0.35732,0.642373 1.20445,0.642373 1.015753,0 1.381103,-0.694566 0.196727,-0.377394 0.196727,-1.015753 V 27.94063 h 0.810996 v 3.312238 q 0,1.08802 -0.293083,1.674186 -0.537988,1.067945 -2.031506,1.067945 -1.493518,0 -2.027491,-1.067945 -0.293083,-0.586166 -0.293083,-1.674186 V 27.94063 Z m 1.513592,0 z m 3.73781,0 h 0.806981 v 5.897791 h -0.806981 z"
       id="text38"
       style="font-size:8.22238px;font-family:Helvetica;-inkscape-font-specification:Helvetica;display:none;fill:#4b78ac;stroke-width:1.0278"
       inkscape:label="For .NET MAUI"
       transform="matrix(1.0050863,0,0,0.99493944,25.93,20.731)"
       aria-label="For .NET MAUI" /><path
       d="m 32.319585,27.94063 h 4.091116 v 0.72267 h -3.292164 v 1.790616 h 2.894695 v 0.702596 h -2.894695 v 2.681909 h -0.798952 z m 6.556224,5.43207 q 0.718655,0 0.983634,-0.542002 0.268994,-0.546018 0.268994,-1.21248 0,-0.602225 -0.192712,-0.97962 -0.305127,-0.594195 -1.051886,-0.594195 -0.662448,0 -0.963561,0.505869 -0.301112,0.505869 -0.301112,1.220509 0,0.686537 0.301112,1.144228 0.301113,0.457691 0.955531,0.457691 z m 0.0281,-3.958626 q 0.83107,0 1.405192,0.554047 0.574121,0.554047 0.574121,1.630023 0,1.039842 -0.505869,1.718348 -0.505869,0.678507 -1.5698,0.678507 -0.887279,0 -1.409207,-0.59821 -0.521928,-0.602225 -0.521928,-1.613963 0,-1.084005 0.550032,-1.726379 0.550032,-0.642373 1.477459,-0.642373 z m -0.02409,0.02007 z m 2.882651,0.104386 h 0.686536 v 0.742744 q 0.08431,-0.216801 0.413528,-0.525943 0.329216,-0.313157 0.758804,-0.313157 0.02007,0 0.06825,0.004 0.04818,0.004 0.164608,0.01606 v 0.762818 q -0.06424,-0.01204 -0.120445,-0.01606 -0.05219,-0.004 -0.11643,-0.004 -0.546018,0 -0.8391,0.353306 -0.293083,0.34929 -0.293083,0.806981 v 2.473138 h -0.72267 z m 5.17512,-1.597904 h 2.65381 q 0.786907,0 1.268687,0.445647 0.48178,0.441631 0.48178,1.244598 0,0.690551 -0.429587,1.20445 -0.429587,0.509884 -1.32088,0.509884 h -1.854853 v 2.493212 h -0.798952 z m 3.597291,1.69426 q 0,-0.650403 -0.48178,-0.883264 -0.264979,-0.124459 -0.726685,-0.124459 h -1.589874 v 2.04355 h 1.589874 q 0.537987,0 0.871219,-0.228846 0.337246,-0.228845 0.337246,-0.806981 z m 4.400257,-0.09636 h 0.798952 q -0.152564,0.413528 -0.678507,1.886972 -0.393454,1.108094 -0.658433,1.806675 -0.626314,1.646082 -0.883263,2.007417 -0.256949,0.361335 -0.883264,0.361335 -0.152563,0 -0.236875,-0.01205 -0.0803,-0.01204 -0.200741,-0.04416 v -0.658433 q 0.188697,0.05219 0.273008,0.06424 0.08431,0.01204 0.148549,0.01204 0.200742,0 0.293083,-0.06825 0.09636,-0.06424 0.160593,-0.160593 0.02008,-0.03212 0.144534,-0.329217 0.12446,-0.297097 0.180668,-0.441631 l -1.589874,-4.424347 h 0.819026 l 1.152257,3.500935 z M 53.770836,29.43414 Z m 2.734103,-1.096049 h 0.7307 v 1.200435 h 0.686536 v 0.59018 h -0.686536 v 2.806369 q 0,0.224831 0.152563,0.301113 0.08431,0.04416 0.281039,0.04416 0.05219,0 0.112415,0 0.06022,-0.004 0.140519,-0.01205 v 0.570107 q -0.124459,0.03613 -0.260964,0.05219 -0.132489,0.01606 -0.289068,0.01606 -0.505869,0 -0.686536,-0.256949 -0.180668,-0.260965 -0.180668,-0.674492 v -2.846518 h -0.582151 v -0.59018 h 0.582151 z m 2.139907,-0.417543 h 0.72267 v 2.200129 q 0.256949,-0.325202 0.461706,-0.457691 0.349291,-0.228846 0.871219,-0.228846 0.935456,0 1.268687,0.654418 0.180668,0.35732 0.180668,0.991664 v 2.758191 H 61.407052 V 31.1284 q 0,-0.47375 -0.120445,-0.694566 -0.196727,-0.353306 -0.73873,-0.353306 -0.449661,0 -0.815011,0.309143 -0.36535,0.309142 -0.36535,1.168316 v 2.280426 h -0.72267 z M 64.92405,33.3727 q 0.718656,0 0.983635,-0.542002 0.268994,-0.546018 0.268994,-1.21248 0,-0.602225 -0.192712,-0.97962 -0.305128,-0.594195 -1.051887,-0.594195 -0.662447,0 -0.96356,0.505869 -0.301113,0.505869 -0.301113,1.220509 0,0.686537 0.301113,1.144228 0.301113,0.457691 0.95553,0.457691 z m 0.0281,-3.958626 q 0.831071,0 1.405192,0.554047 0.574121,0.554047 0.574121,1.630023 0,1.039842 -0.505869,1.718348 -0.505869,0.678507 -1.5698,0.678507 -0.887278,0 -1.409206,-0.59821 -0.521929,-0.602225 -0.521929,-1.613963 0,-1.084005 0.550032,-1.726379 0.550033,-0.642373 1.477459,-0.642373 z m -0.02409,0.02007 z m 2.862578,0.104386 h 0.686537 v 0.610255 q 0.305127,-0.377395 0.646388,-0.542003 0.341261,-0.164608 0.758803,-0.164608 0.915383,0 1.236569,0.638358 0.176653,0.349291 0.176653,0.999694 v 2.758191 h -0.734715 v -2.710013 q 0,-0.393454 -0.11643,-0.634344 -0.192712,-0.401483 -0.698581,-0.401483 -0.256949,0 -0.421557,0.05219 -0.297098,0.08833 -0.521929,0.353305 -0.180667,0.212786 -0.236875,0.441632 -0.05219,0.224831 -0.05219,0.646388 v 2.252322 h -0.72267 z m 1.698275,-0.104386 z"
       id="text38-9"
       style="font-size:8.22238px;font-family:Helvetica;-inkscape-font-specification:Helvetica;display:none;fill:#4b78ac;stroke-width:1.0278"
       inkscape:label="For Python"
       transform="matrix(1.0050863,0,0,0.99493944,25.93,20.731)"
       aria-label="For Python" /><path
       d="m 32.319585,27.94063 h 4.091116 v 0.72267 h -3.292164 v 1.790616 h 2.894695 v 0.702596 h -2.894695 v 2.681909 h -0.798952 z m 6.556224,5.43207 q 0.718655,0 0.983634,-0.542002 0.268994,-0.546018 0.268994,-1.21248 0,-0.602225 -0.192712,-0.97962 -0.305127,-0.594195 -1.051886,-0.594195 -0.662448,0 -0.963561,0.505869 -0.301112,0.505869 -0.301112,1.220509 0,0.686537 0.301112,1.144228 0.301113,0.457691 0.955531,0.457691 z m 0.0281,-3.958626 q 0.83107,0 1.405192,0.554047 0.574121,0.554047 0.574121,1.630023 0,1.039842 -0.505869,1.718348 -0.505869,0.678507 -1.5698,0.678507 -0.887279,0 -1.409207,-0.59821 -0.521928,-0.602225 -0.521928,-1.613963 0,-1.084005 0.550032,-1.726379 0.550032,-0.642373 1.477459,-0.642373 z m -0.02409,0.02007 z m 2.882651,0.104386 h 0.686536 v 0.742744 q 0.08431,-0.216801 0.413528,-0.525943 0.329216,-0.313157 0.758804,-0.313157 0.02007,0 0.06825,0.004 0.04818,0.004 0.164608,0.01606 v 0.762818 q -0.06424,-0.01204 -0.120445,-0.01606 -0.05219,-0.004 -0.11643,-0.004 -0.546018,0 -0.8391,0.353306 -0.293083,0.34929 -0.293083,0.806981 v 2.473138 h -0.72267 z m 7.363204,3.617365 q 0.405498,0 0.666462,-0.08431 0.465721,-0.156579 0.762819,-0.602225 0.236875,-0.357321 0.341261,-0.915383 0.06022,-0.333231 0.06022,-0.618284 0,-1.09605 -0.437617,-1.70229 -0.433602,-0.606239 -1.401177,-0.606239 h -1.417236 v 4.528732 z M 46.897446,27.94063 h 2.388826 q 1.216495,0 1.886972,0.863189 0.598211,0.778878 0.598211,1.995373 0,0.939471 -0.353306,1.698274 -0.622299,1.340955 -2.139906,1.340955 h -2.380797 z m 7.596067,1.501548 q 0.457691,0 0.887279,0.216801 0.429587,0.212786 0.654417,0.554047 0.216801,0.325201 0.289068,0.758804 0.06424,0.297097 0.06424,0.9475 H 53.23687 q 0.02007,0.654418 0.309142,1.051887 0.289069,0.393453 0.895308,0.393453 0.566092,0 0.903338,-0.373379 0.192712,-0.216801 0.273009,-0.501854 h 0.710625 q -0.0281,0.236875 -0.188697,0.529958 -0.156578,0.289068 -0.353305,0.47375 -0.329217,0.321187 -0.815012,0.433602 -0.260964,0.06424 -0.59018,0.06424 -0.802967,0 -1.361029,-0.582151 -0.558062,-0.586166 -0.558062,-1.638053 0,-1.035827 0.562077,-1.682215 0.562077,-0.646388 1.469429,-0.646388 z m 1.152258,1.903031 q -0.04416,-0.469735 -0.204757,-0.750774 -0.297098,-0.521928 -0.991664,-0.521928 -0.497839,0 -0.835085,0.361335 -0.337246,0.35732 -0.357321,0.911367 z m -1.22051,-1.911061 z m 3.203837,0.104386 1.148242,3.500935 1.200436,-3.500935 h 0.790922 l -1.621993,4.299887 h -0.770848 l -1.585859,-4.299887 z m 5.548499,-0.09636 q 0.457691,0 0.887278,0.216801 0.429588,0.212786 0.654418,0.554047 0.216801,0.325201 0.289068,0.758804 0.06424,0.297097 0.06424,0.9475 h -3.151645 q 0.02007,0.654418 0.309142,1.051887 0.289068,0.393453 0.895308,0.393453 0.566092,0 0.903338,-0.373379 0.192712,-0.216801 0.273009,-0.501854 h 0.710625 q -0.0281,0.236875 -0.188697,0.529958 -0.156578,0.289068 -0.353305,0.47375 -0.329217,0.321187 -0.815012,0.433602 -0.260964,0.06424 -0.59018,0.06424 -0.802967,0 -1.361029,-0.582151 -0.558062,-0.586166 -0.558062,-1.638053 0,-1.035827 0.562077,-1.682215 0.562077,-0.646388 1.469429,-0.646388 z m 1.152258,1.903031 Q 64.285695,30.87547 64.125098,30.594431 63.828,30.072503 63.133434,30.072503 q -0.497839,0 -0.835085,0.361335 -0.337246,0.35732 -0.357321,0.911367 z m -1.22051,-1.911061 z m 2.870607,-1.493518 h 0.722671 v 5.897791 h -0.722671 z m 3.512979,5.43207 q 0.718655,0 0.983634,-0.542002 0.268994,-0.546018 0.268994,-1.21248 0,-0.602225 -0.192712,-0.97962 -0.305128,-0.594195 -1.051887,-0.594195 -0.662447,0 -0.96356,0.505869 -0.301112,0.505869 -0.301112,1.220509 0,0.686537 0.301112,1.144228 0.301113,0.457691 0.955531,0.457691 z m 0.0281,-3.958626 q 0.831071,0 1.405192,0.554047 0.574121,0.554047 0.574121,1.630023 0,1.039842 -0.505869,1.718348 -0.505869,0.678507 -1.5698,0.678507 -0.887278,0 -1.409206,-0.59821 -0.521929,-0.602225 -0.521929,-1.613963 0,-1.084005 0.550033,-1.726379 0.550032,-0.642373 1.477458,-0.642373 z m -0.02409,0.02007 z m 4.677281,3.918478 q 0.505869,0 0.8391,-0.421558 0.337246,-0.425572 0.337246,-1.268687 0,-0.513899 -0.148548,-0.883264 -0.281039,-0.710625 -1.027798,-0.710625 -0.750774,0 -1.027797,0.750774 -0.148549,0.401483 -0.148549,1.019768 0,0.497839 0.148549,0.84713 0.281038,0.666462 1.027797,0.666462 z M 72.30331,29.5586 h 0.702595 v 0.570106 q 0.216801,-0.293082 0.473751,-0.453676 0.36535,-0.24089 0.859174,-0.24089 0.7307,0 1.240584,0.562077 0.509884,0.558062 0.509884,1.597904 0,1.405192 -0.734715,2.007417 -0.46572,0.381409 -1.084005,0.381409 -0.485795,0 -0.815011,-0.212786 -0.192712,-0.120445 -0.429587,-0.413528 v 2.196114 h -0.72267 z m 6.419718,-0.11643 q 0.457691,0 0.887278,0.216801 0.429588,0.212786 0.654418,0.554047 0.216801,0.325201 0.289068,0.758804 0.06424,0.297097 0.06424,0.9475 h -3.151645 q 0.02007,0.654418 0.309142,1.051887 0.289068,0.393453 0.895308,0.393453 0.566092,0 0.903338,-0.373379 0.192712,-0.216801 0.273009,-0.501854 h 0.710625 q -0.0281,0.236875 -0.188697,0.529958 -0.156579,0.289068 -0.353305,0.47375 -0.329217,0.321187 -0.815012,0.433602 -0.260964,0.06424 -0.59018,0.06424 -0.802967,0 -1.361029,-0.582151 -0.558062,-0.586166 -0.558062,-1.638053 0,-1.035827 0.562077,-1.682215 0.562077,-0.646388 1.469429,-0.646388 z m 1.152257,1.903031 q -0.04416,-0.469735 -0.204756,-0.750774 -0.297098,-0.521928 -0.991664,-0.521928 -0.497839,0 -0.835085,0.361335 -0.337247,0.35732 -0.357321,0.911367 z M 78.65478,29.434148 Z m 2.870609,0.104386 h 0.686537 v 0.742744 q 0.08431,-0.216801 0.413528,-0.525943 0.329216,-0.313157 0.758803,-0.313157 0.02007,0 0.06825,0.004 0.04818,0.004 0.164608,0.01606 v 0.762818 q -0.06424,-0.01204 -0.120445,-0.01606 -0.05219,-0.004 -0.11643,-0.004 -0.546018,0 -0.839101,0.353306 -0.293083,0.34929 -0.293083,0.806981 v 2.473138 h -0.72267 z m 3.147627,2.950903 q 0.03212,0.361335 0.180667,0.554047 0.273009,0.34929 0.947501,0.34929 0.401483,0 0.706611,-0.172638 0.305127,-0.176652 0.305127,-0.542002 0,-0.277024 -0.244905,-0.421558 -0.156578,-0.08833 -0.618284,-0.204756 l -0.574121,-0.144534 q -0.550033,-0.136505 -0.810997,-0.305128 -0.46572,-0.293082 -0.46572,-0.810996 0,-0.610255 0.437616,-0.987649 0.441632,-0.377395 1.184376,-0.377395 0.97159,0 1.401177,0.570107 0.268994,0.361335 0.260965,0.778878 h -0.682522 q -0.02007,-0.244905 -0.172638,-0.445647 -0.24892,-0.285053 -0.863189,-0.285053 -0.409513,0 -0.6223,0.156578 -0.208771,0.156579 -0.208771,0.413528 0,0.281039 0.277024,0.449662 0.160593,0.100371 0.47375,0.176652 l 0.477765,0.116431 q 0.778878,0.188697 1.043857,0.365349 0.421558,0.277024 0.421558,0.871219 0,0.574122 -0.437617,0.991664 -0.433602,0.417543 -1.324895,0.417543 -0.959546,0 -1.361029,-0.433602 -0.397469,-0.437617 -0.425573,-1.07999 z m 1.067946,-3.055289 z"
       id="text38-9-8"
       style="font-size:8.22238px;font-family:Helvetica;-inkscape-font-specification:Helvetica;display:none;fill:#4b78ac;stroke-width:1.0278"
       inkscape:label="For Developers"
       transform="matrix(1.0050863,0,0,0.99493944,25.93,20.731)"
       aria-label="For Developers" /><path
       d="m 32.319585,27.960703 h 4.091116 v 0.72267 h -3.292164 v 1.790616 h 2.894695 v 0.702596 h -2.894695 v 2.681909 h -0.798952 z m 6.556224,5.43207 q 0.718655,0 0.983634,-0.542002 0.268994,-0.546018 0.268994,-1.21248 0,-0.602225 -0.192712,-0.97962 -0.305127,-0.594195 -1.051886,-0.594195 -0.662448,0 -0.963561,0.505869 -0.301112,0.505869 -0.301112,1.220509 0,0.686537 0.301112,1.144228 0.301113,0.457691 0.955531,0.457691 z m 0.0281,-3.958626 q 0.83107,0 1.405192,0.554047 0.574121,0.554047 0.574121,1.630023 0,1.039841 -0.505869,1.718348 -0.505869,0.678507 -1.5698,0.678507 -0.887279,0 -1.409207,-0.59821 -0.521928,-0.602225 -0.521928,-1.613963 0,-1.084005 0.550032,-1.726379 0.550032,-0.642373 1.477459,-0.642373 z m -0.02409,0.02007 z m 2.882651,0.104386 h 0.686536 v 0.742744 q 0.08431,-0.216801 0.413528,-0.525943 0.329216,-0.313157 0.758804,-0.313157 0.02007,0 0.06825,0.004 0.04818,0.004 0.164608,0.01606 v 0.762818 q -0.06424,-0.01204 -0.120445,-0.01606 -0.05219,-0.004 -0.11643,-0.004 -0.546018,0 -0.8391,0.353306 -0.293083,0.34929 -0.293083,0.806981 v 2.473138 h -0.72267 z m 5.078764,-1.597904 h 1.144227 l 1.69426,4.986424 1.682216,-4.986424 h 1.132183 v 5.897791 h -0.758804 v -3.480861 q 0,-0.180668 0.008,-0.59821 0.008,-0.417543 0.008,-0.895308 l -1.682215,4.974379 h -0.790922 l -1.69426,-4.974379 v 0.180667 q 0,0.216801 0.008,0.662448 0.01204,0.441632 0.01204,0.650403 v 3.480861 h -0.762818 z m 7.327071,4.753563 q 0,0.313157 0.228845,0.493825 0.228846,0.180667 0.542003,0.180667 0.381409,0 0.738729,-0.176652 0.602226,-0.293083 0.602226,-0.959546 v -0.582151 q -0.13249,0.08431 -0.341261,0.14052 -0.208772,0.05621 -0.409513,0.0803 l -0.437617,0.05621 q -0.393454,0.05219 -0.590181,0.164608 -0.333231,0.188697 -0.333231,0.602225 z m 1.750467,-1.461399 q 0.24892,-0.03212 0.333232,-0.208772 0.04818,-0.09636 0.04818,-0.277023 0,-0.369365 -0.264979,-0.533973 -0.260965,-0.168623 -0.750774,-0.168623 -0.566092,0 -0.802967,0.305127 -0.13249,0.168623 -0.172638,0.501854 h -0.674492 q 0.02007,-0.794937 0.513899,-1.104079 0.497839,-0.313157 1.152257,-0.313157 0.758804,0 1.232554,0.289068 0.469736,0.289068 0.469736,0.899323 v 2.477152 q 0,0.112416 0.04416,0.180668 0.04818,0.06825 0.196727,0.06825 0.04818,0 0.1084,-0.004 0.06022,-0.008 0.128475,-0.02007 v 0.533973 q -0.168623,0.04818 -0.25695,0.06022 -0.08833,0.01205 -0.24089,0.01205 -0.373379,0 -0.542002,-0.264979 -0.08833,-0.140519 -0.12446,-0.397469 -0.220816,0.289068 -0.634344,0.501855 -0.413528,0.212786 -0.911367,0.212786 -0.59821,0 -0.979619,-0.361335 -0.377395,-0.36535 -0.377395,-0.911368 0,-0.59821 0.37338,-0.927426 0.373379,-0.329216 0.979619,-0.405498 z m -0.59821,-1.798646 z m 3.011127,-1.09605 h 0.7307 v 1.200436 h 0.686536 v 0.59018 h -0.686536 v 2.806369 q 0,0.224831 0.152563,0.301113 0.08431,0.04416 0.281039,0.04416 0.05219,0 0.112415,0 0.06022,-0.004 0.140519,-0.01205 v 0.570107 q -0.12446,0.03613 -0.260964,0.05219 -0.13249,0.01606 -0.289068,0.01606 -0.505869,0 -0.686537,-0.256949 -0.180667,-0.260965 -0.180667,-0.674492 v -2.846518 h -0.582151 v -0.59018 h 0.582151 z m 2.159981,-0.397468 h 0.72267 v 5.897791 h -0.72267 z m 2.360721,4.753563 q 0,0.313157 0.228845,0.493825 0.228846,0.180667 0.542003,0.180667 0.381409,0 0.738729,-0.176652 0.602225,-0.293083 0.602225,-0.959546 v -0.582151 q -0.132489,0.08431 -0.34126,0.14052 -0.208772,0.05621 -0.409514,0.0803 l -0.437616,0.05621 q -0.393454,0.05219 -0.590181,0.164608 -0.333231,0.188697 -0.333231,0.602225 z m 1.750467,-1.461399 q 0.24892,-0.03212 0.333232,-0.208772 0.04818,-0.09636 0.04818,-0.277023 0,-0.369365 -0.264979,-0.533973 -0.260965,-0.168623 -0.750774,-0.168623 -0.566092,0 -0.802967,0.305127 -0.13249,0.168623 -0.172638,0.501854 H 62.31842 q 0.02007,-0.794937 0.513899,-1.104079 0.497839,-0.313157 1.152257,-0.313157 0.758804,0 1.232554,0.289068 0.469735,0.289068 0.469735,0.899323 v 2.477152 q 0,0.112416 0.04416,0.180668 0.04818,0.06825 0.196727,0.06825 0.04818,0 0.1084,-0.004 0.06022,-0.008 0.128475,-0.02007 v 0.533973 q -0.168623,0.04818 -0.25695,0.06022 -0.08833,0.01205 -0.24089,0.01205 -0.373379,0 -0.542002,-0.264979 -0.08833,-0.140519 -0.12446,-0.397469 -0.220816,0.289068 -0.634344,0.501855 -0.413528,0.212786 -0.911367,0.212786 -0.59821,0 -0.97962,-0.361335 -0.377394,-0.36535 -0.377394,-0.911368 0,-0.59821 0.37338,-0.927426 0.373379,-0.329216 0.979619,-0.405498 z m -0.59821,-1.798646 z m 2.810383,-1.513592 h 0.702596 v 2.139906 q 0.236875,-0.309142 0.566092,-0.469735 0.329216,-0.164609 0.71464,-0.164609 0.802967,0 1.300806,0.554047 0.501854,0.550033 0.501854,1.626008 0,1.019768 -0.493824,1.69426 -0.493825,0.674492 -1.369058,0.674492 -0.48981,0 -0.827056,-0.236875 -0.200742,-0.140519 -0.429587,-0.449661 v 0.550032 h -0.666463 z m 1.878942,5.416011 q 0.586166,0 0.875234,-0.465721 0.293083,-0.465721 0.293083,-1.228539 0,-0.678507 -0.293083,-1.124154 -0.289068,-0.445646 -0.85516,-0.445646 -0.493824,0 -0.867204,0.36535 -0.369364,0.365349 -0.369364,1.20445 0,0.60624 0.152563,0.983634 0.285054,0.710626 1.063931,0.710626 z"
       id="text38-9-8-5"
       style="font-size:8.22238px;font-family:Helvetica;-inkscape-font-specification:Helvetica;display:none;fill:#4b78ac;stroke-width:1.0278"
       inkscape:label="For MatLab"
       transform="matrix(1.0050863,0,0,0.99493944,25.93,20.731)"
       aria-label="For Matlab" /><path
       d="m 32.319585,27.960703 h 4.091116 v 0.72267 h -3.292164 v 1.790616 h 2.894695 v 0.702596 h -2.894695 v 2.681909 h -0.798952 z m 6.556224,5.43207 q 0.718655,0 0.983634,-0.542002 0.268994,-0.546018 0.268994,-1.21248 0,-0.602225 -0.192712,-0.97962 -0.305127,-0.594195 -1.051886,-0.594195 -0.662448,0 -0.963561,0.505869 -0.301112,0.505869 -0.301112,1.220509 0,0.686537 0.301112,1.144228 0.301113,0.457691 0.955531,0.457691 z m 0.0281,-3.958626 q 0.83107,0 1.405192,0.554047 0.574121,0.554047 0.574121,1.630023 0,1.039841 -0.505869,1.718348 -0.505869,0.678507 -1.5698,0.678507 -0.887279,0 -1.409207,-0.59821 -0.521928,-0.602225 -0.521928,-1.613963 0,-1.084005 0.550032,-1.726379 0.550032,-0.642373 1.477459,-0.642373 z m -0.02409,0.02007 z m 2.882651,0.104386 h 0.686536 v 0.742744 q 0.08431,-0.216801 0.413528,-0.525943 0.329216,-0.313157 0.758804,-0.313157 0.02007,0 0.06825,0.004 0.04818,0.004 0.164608,0.01606 v 0.762818 q -0.06424,-0.01204 -0.120445,-0.01606 -0.05219,-0.004 -0.11643,-0.004 -0.546018,0 -0.8391,0.353306 -0.293083,0.34929 -0.293083,0.806981 v 2.473138 h -0.72267 z m 5.098838,-1.597904 h 0.798952 v 5.195195 h 2.987036 v 0.702596 h -3.785988 z m 5.030588,4.753563 q 0,0.313157 0.228845,0.493825 0.228846,0.180667 0.542003,0.180667 0.381409,0 0.738729,-0.176652 0.602225,-0.293083 0.602225,-0.959546 v -0.582151 q -0.132489,0.08431 -0.34126,0.14052 -0.208772,0.05621 -0.409514,0.0803 l -0.437616,0.05621 q -0.393454,0.05219 -0.590181,0.164608 -0.333231,0.188697 -0.333231,0.602225 z m 1.750467,-1.461399 q 0.24892,-0.03212 0.333232,-0.208772 0.04818,-0.09636 0.04818,-0.277023 0,-0.369365 -0.264979,-0.533973 -0.260965,-0.168623 -0.750774,-0.168623 -0.566092,0 -0.802967,0.305127 -0.13249,0.168623 -0.172638,0.501854 h -0.674492 q 0.02007,-0.794937 0.513899,-1.104079 0.497839,-0.313157 1.152257,-0.313157 0.758804,0 1.232554,0.289068 0.469735,0.289068 0.469735,0.899323 v 2.477152 q 0,0.112416 0.04416,0.180668 0.04818,0.06825 0.196727,0.06825 0.04818,0 0.1084,-0.004 0.06022,-0.008 0.128475,-0.02007 v 0.533973 q -0.168623,0.04818 -0.25695,0.06022 -0.08833,0.01205 -0.24089,0.01205 -0.373379,0 -0.542002,-0.264979 -0.08833,-0.140519 -0.12446,-0.397469 -0.220816,0.289068 -0.634344,0.501855 -0.413528,0.212786 -0.911367,0.212786 -0.59821,0 -0.97962,-0.361335 -0.377394,-0.36535 -0.377394,-0.911368 0,-0.59821 0.37338,-0.927426 0.373379,-0.329216 0.979619,-0.405498 z m -0.59821,-1.798646 z m 2.810383,-1.513592 h 0.702596 v 2.139906 q 0.236875,-0.309142 0.566092,-0.469735 0.329216,-0.164609 0.71464,-0.164609 0.802967,0 1.300806,0.554047 0.501854,0.550033 0.501854,1.626008 0,1.019768 -0.493824,1.69426 -0.493825,0.674492 -1.369058,0.674492 -0.48981,0 -0.827056,-0.236875 -0.200742,-0.140519 -0.429587,-0.449661 v 0.550032 h -0.666463 z m 1.878942,5.416011 q 0.586166,0 0.875234,-0.465721 0.293083,-0.465721 0.293083,-1.228539 0,-0.678507 -0.293083,-1.124154 -0.289068,-0.445646 -0.855159,-0.445646 -0.493825,0 -0.867205,0.36535 -0.369364,0.365349 -0.369364,1.20445 0,0.60624 0.152563,0.983634 0.285054,0.710626 1.063931,0.710626 z m 3.312238,-5.395937 1.694259,5.022557 1.674186,-5.022557 h 0.895308 l -2.151951,5.897791 h -0.84713 l -2.147936,-5.897791 z m 4.777652,1.617978 h 0.734715 v 4.279813 h -0.734715 z m 0,-1.617978 h 0.734715 v 0.819026 h -0.734715 z m 3.617364,1.501548 q 0.457691,0 0.887278,0.216801 0.429587,0.212786 0.654418,0.554047 0.216801,0.325201 0.289068,0.758803 0.06424,0.297098 0.06424,0.947501 h -3.151644 q 0.02007,0.654418 0.309142,1.051887 0.289068,0.393453 0.895308,0.393453 0.566092,0 0.903338,-0.373379 0.192712,-0.216801 0.273008,-0.501854 h 0.710626 q -0.0281,0.236875 -0.188697,0.529958 -0.156579,0.289068 -0.353306,0.47375 -0.329216,0.321187 -0.815011,0.433602 -0.260964,0.06424 -0.59018,0.06424 -0.802967,0 -1.361029,-0.58215 -0.558062,-0.586166 -0.558062,-1.638053 0,-1.035827 0.562077,-1.682215 0.562076,-0.646388 1.469429,-0.646388 z m 1.152257,1.903031 q -0.04416,-0.469736 -0.204756,-0.750774 -0.297098,-0.521928 -0.991664,-0.521928 -0.49784,0 -0.835086,0.361335 -0.337246,0.35732 -0.35732,0.911367 z M 69.37248,29.454217 Z m 3.183762,0.104386 0.827056,3.38852 0.8391,-3.38852 H 75.0334 l 0.843115,3.368445 0.879248,-3.368445 h 0.722671 L 76.22982,33.85849 h -0.750774 l -0.875233,-3.328297 -0.84713,3.328297 h -0.750774 l -1.240584,-4.299887 z"
       id="text38-9-8-5-7"
       style="font-size:8.22238px;font-family:Helvetica;-inkscape-font-specification:Helvetica;display:none;fill:#4b78ac;stroke-width:1.0278"
       inkscape:label="For LabView"
       transform="matrix(1.0050863,0,0,0.99493944,25.93,20.731)"
       aria-label="For LabView" /><g
       id="Layer_1-0"
       transform="matrix(0.30723269,0,0,0.30723269,28.082392,22.021303)">
	<path
   fill="#ffffff"
   d="M 24.6,39.7 C 25.8,32 31.9,25.9 39.7,24.7 V 0.5 C 18.7,1.9 1.9,18.7 0.5,39.7 Z"
   id="path1" />
	<path
   fill="#ffffff"
   d="M 27.9,53.2 C 26.3,51 25.1,48.3 24.7,45.5 H 0.5 c 0.6,8.1 3.4,15.6 7.9,21.9 z"
   id="path2" />
	<path
   opacity="0.8"
   fill="#ffffff"
   d="m 29.5,82.7 7.4,-22.8 c -3.7,-1.2 -6.8,-3.5 -9,-6.6 l -19.5,14 c 5.2,7.2 12.5,12.6 21.1,15.4 z"
   id="path3-9" />
	<path
   opacity="0.6"
   fill="#ffffff"
   d="m 42.5,84.8 c 4.6,0 8.9,-0.8 13,-2.1 L 48.1,59.9 c -1.8,0.6 -3.6,0.9 -5.6,0.9 -2,0 -3.8,-0.3 -5.6,-0.9 l -7.4,22.8 c 4.1,1.3 8.5,2.1 13,2.1 z"
   id="path4-4" />
	<path
   opacity="0.4"
   fill="#ffffff"
   d="M 55.5,82.7 C 64,79.9 71.4,74.5 76.6,67.4 L 57.2,53.2 c -2.2,3.1 -5.4,5.4 -9,6.6 z"
   id="path5-8" />
	<path
   opacity="0.3"
   fill="#ffffff"
   d="m 45.3,24.7 c 7.7,1.2 13.8,7.3 15.1,15 H 84.5 C 83.1,18.7 66.3,1.9 45.3,0.5 Z"
   id="path6" />
	<path
   opacity="0.3"
   fill="#ffffff"
   d="M 76.6,67.3 C 81.1,61.1 84,53.6 84.5,45.4 H 60.4 c -0.5,2.9 -1.6,5.5 -3.2,7.7 z"
   id="path7" />
	<path
   opacity="0.2"
   fill="#ffffff"
   d="m 45.3,12.7 v 12 c 7.7,1.2 13.8,7.3 15.1,15 h 12 C 71,25.4 59.6,14 45.3,12.7 Z"
   id="path8" />
	<path
   opacity="0.2"
   fill="#ffffff"
   d="m 57.2,53.2 9.6,7 c 3.1,-4.2 5.1,-9.3 5.6,-14.8 h -12 c -0.5,2.9 -1.6,5.6 -3.2,7.8 z"
   id="path9" />
	<path
   fill="#ffffff"
   d="m 12.6,39.7 h 12 c 1.2,-7.7 7.3,-13.8 15.1,-15 v -12 C 25.4,14 14,25.4 12.6,39.7 Z"
   id="path10" />
	<path
   opacity="0.2"
   fill="#ffffff"
   d="m 24.6,45.5 h -12 c 0.5,5.5 2.5,10.5 5.6,14.8 l 9.6,-7 c -1.6,-2.3 -2.7,-5 -3.2,-7.8 z"
   id="path11" />
	<path
   opacity="0.2"
   fill="#ffffff"
   d="m 33.2,71.1 3.7,-11.3 c -3.7,-1.2 -6.8,-3.5 -9,-6.6 l -9.6,7 c 3.6,5.1 8.8,9 14.9,10.9 z"
   id="path12" />
	<path
   opacity="0.2"
   fill="#ffffff"
   d="m 42.5,72.6 c 3.2,0 6.4,-0.5 9.3,-1.5 L 48.1,59.8 c -1.8,0.6 -3.6,0.9 -5.6,0.9 -2,0 -3.8,-0.3 -5.6,-0.9 l -3.7,11.3 c 3,1 6.1,1.5 9.3,1.5 z"
   id="path13" />
	<path
   opacity="0.2"
   fill="#ffffff"
   d="m 51.8,71.1 c 6.1,-2 11.3,-5.8 15,-10.9 l -9.6,-7 c -2.2,3.1 -5.4,5.4 -9,6.6 z"
   id="path14" />
</g></g></svg>
