<?xml version="1.0" encoding="UTF-8" standalone="no"?>
<!-- Created with Inkscape (http://www.inkscape.org/) -->

<svg
   version="1.1"
   id="svg1"
   width="315.29333"
   height="61.453335"
   viewBox="0 0 315.29333 61.453335"
   xmlns="http://www.w3.org/2000/svg"
   xmlns:svg="http://www.w3.org/2000/svg">
  <defs
     id="defs1" />
  <g
     id="g1">
    <g
       id="group-R5">
      <path
         id="path2"
         d="m 393.438,246.566 h -65.782 c -6.793,42.215 -40.144,75.442 -82.422,82.051 v 65.731 c 56.614,-5.266 104.887,-39.215 130.133,-87.184 0.004,-0.004 0.008,-0.008 0.012,-0.012 0.336,-0.644 0.672,-1.289 1,-1.937 0.012,-0.024 0.023,-0.047 0.035,-0.067 0.024,-0.046 0.043,-0.085 0.066,-0.132 6.106,-12.032 10.778,-24.911 13.786,-38.422 v -0.004 c 0.027,-0.121 0.054,-0.246 0.082,-0.371 0.004,-0.024 0.007,-0.047 0.015,-0.071 0.043,-0.203 0.09,-0.406 0.133,-0.609 0.004,-0.019 0.008,-0.031 0.012,-0.051 0,-0.011 0.004,-0.019 0.004,-0.031 1.328,-6.176 2.312,-12.477 2.926,-18.891"
         style="fill:#ffffff;fill-opacity:1;fill-rule:nonzero;stroke:none"
         transform="matrix(0.13333333,0,0,-0.13333333,0,61.453333)" />
      <path
         id="path3"
         d="m 362.73,134.176 v 0 0 l -52.757,38.332 c 0,0 0,-0.004 -0.004,-0.004 v 0 c 8.929,12.309 15.168,26.699 17.687,42.363 h 65.782 v 0 c -2.825,-29.48 -13.52,-56.617 -29.829,-79.472 -0.289,-0.407 -0.582,-0.813 -0.879,-1.219"
         style="fill:#ffffff;fill-opacity:1;fill-rule:nonzero;stroke:none"
         transform="matrix(0.13333333,0,0,-0.13333333,0,61.453333)" />
      <path
         id="path4"
         d="M 66.2188,246.566 H 132 c 6.797,42.215 40.145,75.442 82.422,82.051 v 65.731 C 136.078,387.059 73.7148,324.852 66.2188,246.566"
         style="fill:#ffffff;fill-opacity:1;fill-rule:nonzero;stroke:none"
         transform="matrix(0.13333333,0,0,-0.13333333,0,61.453333)" />
      <path
         id="path5"
         d="M 132,214.867 H 66.2188 c 2.875,-30.012 13.9062,-57.594 30.7148,-80.703 l 52.7574,38.332 C 140.762,184.805 134.52,199.199 132,214.867"
         style="fill:#ffffff;fill-opacity:1;fill-rule:nonzero;stroke:none"
         transform="matrix(0.13333333,0,0,-0.13333333,0,61.453333)" />
      <path
         id="path6"
         d="m 179.059,74.4609 c -0.391,0.1289 -0.782,0.2579 -1.168,0.3868 -32.825,10.9375 -61.012,31.8943 -80.9574,59.3163 l 52.7574,38.332 c 12.161,-16.758 29.407,-29.516 49.504,-36.058 L 179.059,74.4609"
         style="fill:#ffffff;fill-opacity:1;fill-rule:nonzero;stroke:none"
         transform="matrix(0.13333333,0,0,-0.13333333,0,61.453333)" />
      <path
         id="path7"
         d="m 229.828,66.3086 c -1.57,0 -3.137,0.0234 -4.691,0.0703 -0.094,0 -0.188,0.0039 -0.278,0.0078 -0.086,0.0039 -0.171,0.0039 -0.257,0.0078 -15.864,0.5196 -31.114,3.3789 -45.539,8.0664 v 0 l 20.136,61.9771 c 9.656,-3.145 19.922,-4.934 30.629,-4.934 10.715,0 20.985,1.793 30.641,4.934 v 0 0 l 20.136,-61.9732 v 0 c -16.007,-5.2031 -33.031,-8.1562 -50.777,-8.1562"
         style="fill:#ffffff;fill-opacity:1;fill-rule:nonzero;stroke:none"
         transform="matrix(0.13333333,0,0,-0.13333333,0,61.453333)" />
      <path
         id="path8"
         d="m 280.605,74.4648 v 0 0 l -20.136,61.9732 c 20.097,6.546 37.344,19.304 49.5,36.066 l 52.761,-38.332 c -19.117,-26.289 -45.804,-46.629 -76.894,-57.9103 -1.731,-0.625 -3.473,-1.2265 -5.231,-1.7969"
         style="fill:#ffffff;fill-opacity:1;fill-rule:nonzero;stroke:none"
         transform="matrix(0.13333333,0,0,-0.13333333,0,61.453333)" />
      <path
         id="path9"
         d="m 362.73,134.172 -52.761,38.332 c 0.004,0 0.004,0.004 0.004,0.004 l 52.761,-38.332 c -0.004,0 -0.004,0 -0.004,-0.004"
         style="fill:#ffffff;fill-opacity:1;fill-rule:nonzero;stroke:none"
         transform="matrix(0.13333333,0,0,-0.13333333,0,61.453333)" />
      <path
         id="path10"
         d="m 459.656,246.566 h -66.218 c -0.614,6.414 -1.598,12.715 -2.926,18.891 0,0.012 -0.004,0.02 -0.004,0.031 -0.004,0.02 -0.008,0.032 -0.012,0.051 -0.043,0.203 -0.09,0.406 -0.133,0.609 -0.008,0.024 -0.011,0.047 -0.015,0.071 -0.028,0.125 -0.055,0.25 -0.082,0.371 v 0.004 c -3.008,13.511 -7.68,26.39 -13.786,38.422 -0.023,0.047 -0.042,0.086 -0.066,0.132 -0.012,0.02 -0.023,0.043 -0.035,0.067 -0.328,0.648 -0.664,1.293 -1,1.937 -0.004,0.004 -0.008,0.008 -0.012,0.012 -25.246,47.969 -73.519,81.918 -130.133,87.184 v 66.515 C 360.066,453.27 451.859,361.488 459.656,246.566"
         style="fill:#ffffff;fill-opacity:1;fill-rule:nonzero;stroke:none"
         transform="matrix(0.13333333,0,0,-0.13333333,0,61.453333)" />
      <path
         id="path11"
         d="m 390.512,265.457 c 0,0.012 -0.004,0.02 -0.004,0.031 0,-0.011 0.004,-0.019 0.004,-0.031 m -0.016,0.082 c -0.043,0.203 -0.09,0.406 -0.133,0.609 0.043,-0.203 0.09,-0.406 0.133,-0.609 m -0.148,0.68 c -0.028,0.125 -0.055,0.25 -0.082,0.371 0.027,-0.121 0.054,-0.246 0.082,-0.371 m -0.082,0.375 c -3.008,13.511 -7.68,26.39 -13.786,38.422 6.106,-12.032 10.778,-24.911 13.786,-38.422 m -13.852,38.554 c -0.012,0.02 -0.023,0.043 -0.035,0.067 0.012,-0.024 0.023,-0.047 0.035,-0.067 m -1.035,2.004 c -0.004,0.004 -0.008,0.008 -0.012,0.012 0.004,-0.004 0.008,-0.008 0.012,-0.012"
         style="fill:#ffffff;fill-opacity:1;fill-rule:nonzero;stroke:none"
         transform="matrix(0.13333333,0,0,-0.13333333,0,61.453333)" />
      <path
         id="path12"
         d="m 416.266,95.2734 v 0 c 0.004,0.0039 0.004,0.0039 0.004,0.0079 l -53.54,38.8947 c 0.297,0.406 0.59,0.812 0.879,1.219 16.309,22.855 27.004,49.992 29.829,79.472 v 0 h 66.218 C 456.637,170.34 440.961,129.313 416.266,95.2734"
         style="fill:#ffffff;fill-opacity:1;fill-rule:nonzero;stroke:none"
         transform="matrix(0.13333333,0,0,-0.13333333,0,61.453333)" />
      <path
         id="path13"
         d="m 363.609,135.395 c 16.309,22.855 27.004,49.992 29.829,79.472 -2.825,-29.48 -13.52,-56.617 -29.829,-79.472"
         style="fill:#ffffff;fill-opacity:1;fill-rule:nonzero;stroke:none"
         transform="matrix(0.13333333,0,0,-0.13333333,0,61.453333)" />
      <path
         id="path14"
         d="m 0,246.566 h 66.2188 c 7.496,78.286 69.8592,140.493 148.2032,147.782 v 66.515 C 99.5898,453.266 7.79688,361.488 0,246.566"
         style="fill:#ffffff;fill-opacity:1;fill-rule:nonzero;stroke:none"
         transform="matrix(0.13333333,0,0,-0.13333333,0,61.453333)" />
      <path
         id="path15"
         d="M 96.9336,134.164 C 80.125,157.273 69.0938,184.855 66.2188,214.867 H 0 C 3.01953,170.34 18.6992,129.309 43.3945,95.2656 l 53.5391,38.8984"
         style="fill:#ffffff;fill-opacity:1;fill-rule:nonzero;stroke:none"
         transform="matrix(0.13333333,0,0,-0.13333333,0,61.453333)" />
      <path
         id="path16"
         d="M 158.586,11.4531 C 111.867,26.6719 71.6719,56.293 43.3945,95.2656 l 53.5391,38.8984 c 0,-0.004 0,0 0,0 v 0 0 0 c 19.9454,-27.426 48.1294,-48.3749 80.9574,-59.3163 0.386,-0.1289 0.777,-0.2579 1.168,-0.3868 L 158.586,11.4531"
         style="fill:#ffffff;fill-opacity:1;fill-rule:nonzero;stroke:none"
         transform="matrix(0.13333333,0,0,-0.13333333,0,61.453333)" />
      <path
         id="path17"
         d="m 96.9336,134.164 c 0,0 0,-0.004 0,0 v 0 c 0,-0.004 0,0 0,0 v 0"
         style="fill:#ffffff;fill-opacity:1;fill-rule:nonzero;stroke:none"
         transform="matrix(0.13333333,0,0,-0.13333333,0,61.453333)" />
      <path
         id="path18"
         d="M 177.891,74.8477 C 145.063,85.7891 116.879,106.738 96.9336,134.164 v 0 C 116.879,106.742 145.066,85.7852 177.891,74.8477"
         style="fill:#ffffff;fill-opacity:1;fill-rule:nonzero;stroke:none"
         transform="matrix(0.13333333,0,0,-0.13333333,0,61.453333)" />
      <path
         id="path19"
         d="M 229.828,0 C 204.934,0 181.047,4.13672 158.59,11.4531 l 20.473,63.0078 v 0 c 14.425,-4.6875 29.675,-7.5468 45.539,-8.0664 0.086,-0.0039 0.171,-0.0039 0.257,-0.0078 0.09,-0.0039 0.184,-0.0078 0.278,-0.0078 1.558,-0.0469 3.121,-0.0703 4.691,-0.0703 v 0 0 c 17.746,0 34.77,2.9531 50.777,8.1562 v 0 0 L 301.078,11.457 C 278.617,4.14063 254.727,0 229.828,0"
         style="fill:#ffffff;fill-opacity:1;fill-rule:nonzero;stroke:none"
         transform="matrix(0.13333333,0,0,-0.13333333,0,61.453333)" />
      <path
         id="path20"
         d="m 229.828,66.3086 v 0 c 17.746,0 34.77,2.9531 50.777,8.1562 -16.007,-5.2031 -33.031,-8.1562 -50.777,-8.1562 m -4.691,0.0703 c -0.094,0 -0.188,0.0039 -0.278,0.0078 0.09,-0.0039 0.184,-0.0078 0.278,-0.0078 m -0.535,0.0156 c -15.864,0.5196 -31.114,3.3789 -45.539,8.0664 14.425,-4.6875 29.675,-7.5468 45.539,-8.0664"
         style="fill:#ffffff;fill-opacity:1;fill-rule:nonzero;stroke:none"
         transform="matrix(0.13333333,0,0,-0.13333333,0,61.453333)" />
      <path
         id="path21"
         d="m 301.078,11.457 v 0 0 l -20.473,63.0078 c 1.758,0.5704 3.5,1.1719 5.231,1.7969 31.09,11.2813 57.777,31.6213 76.894,57.9103 L 416.266,95.2734 C 387.992,56.3008 347.797,26.6758 301.078,11.457"
         style="fill:#ffffff;fill-opacity:1;fill-rule:nonzero;stroke:none"
         transform="matrix(0.13333333,0,0,-0.13333333,0,61.453333)" />
      <path
         id="path22"
         d="m 362.734,134.176 v 0 c -0.004,0 -0.004,0 -0.004,0 v 0 0"
         style="fill:#ffffff;fill-opacity:1;fill-rule:nonzero;stroke:none"
         transform="matrix(0.13333333,0,0,-0.13333333,0,61.453333)" />
      <path
         id="path23"
         d="m 285.836,76.2617 c 31.09,11.2813 57.777,31.6213 76.894,57.9103 v 0 0.004 h 0.004 c -0.004,0 -0.004,-0.004 -0.004,-0.004 v 0 C 343.613,107.883 316.926,87.543 285.836,76.2617"
         style="fill:#ffffff;fill-opacity:1;fill-rule:nonzero;stroke:none"
         transform="matrix(0.13333333,0,0,-0.13333333,0,61.453333)" />
      <path
         id="path24"
         d="m 362.73,134.172 v 0 c 0,0.004 0,0.004 0,0.004 h 0.004 c -0.004,0 -0.004,-0.004 -0.004,-0.004"
         style="fill:#ffffff;fill-opacity:1;fill-rule:nonzero;stroke:none"
         transform="matrix(0.13333333,0,0,-0.13333333,0,61.453333)" />
      <path
         id="path25"
         d="M 416.266,95.2734 362.73,134.172 c 0,0 0,0.004 0.004,0.004 v 0 c -0.004,0 -0.004,0 -0.004,0 l 53.54,-38.8947 c 0,-0.004 0,-0.004 -0.004,-0.0079"
         style="fill:#ffffff;fill-opacity:1;fill-rule:nonzero;stroke:none"
         transform="matrix(0.13333333,0,0,-0.13333333,0,61.453333)" />
      <path
         id="path26"
         d="m 362.73,134.172 v 0 0.004 h 0.004 c -0.004,0 -0.004,-0.004 -0.004,-0.004"
         style="fill:#ffffff;fill-opacity:1;fill-rule:nonzero;stroke:none"
         transform="matrix(0.13333333,0,0,-0.13333333,0,61.453333)" />
      <path
         id="path27"
         d="m 630.973,365.824 c 24.582,13.086 56.234,5.434 70.781,-17.922 14.109,-22.668 12.84,-54.918 9.637,-80.125 -2.797,-21.941 -11.512,-54.972 -37.543,-61.136 -13.649,-3.227 -36.153,0.566 -40.731,14.25 -3.117,9.297 -2.144,29.539 -2.144,40.3 0,34.875 0,69.739 0,104.633 z m 2.156,-170.769 v 0 c 18.633,-9.883 46.328,-11.34 58.535,-11.34 7.188,0 26.109,3.488 32.516,6.769 22.906,11.817 34.625,39.02 40.55,62.489 3.18,12.57 4.301,26.121 3.477,39.058 -0.559,8.813 -1.996,21.817 -3.727,30.543 -1.679,8.516 -5.414,17.629 -10.195,26.387 -5.019,9.141 -10,14.105 -17.156,21.062 -17.266,16.778 -46.227,16.856 -68.934,16.856 -24.363,0 -48.734,-1.043 -72.511,-1.043 -16.039,0 -31.774,3.203 -48.086,1.199 -6.278,-0.742 -8.004,-11.746 -0.266,-11.746 7.375,0 19.027,-2.305 24.68,-7.383 9.718,-8.703 11.582,-26.558 11.582,-38.226 0,-14.598 0,-202.301 0,-202.301 0,-9.777 -1.227,-25.832 -5.699,-34.6095 C 571.383,79.957 559.164,76.957 544.648,76.957 c -6.812,0 -9.168,-11.8164 -3.738,-15.7812 4.504,-3.3086 20.512,1.7773 25.731,2.1015 16.808,1.0821 33.695,1.0821 50.582,1.0821 8.226,0 16.367,-0.1055 24.539,-1.0821 7.375,-0.8984 16.441,-3.9453 23.523,-2.1015 5.738,1.4765 8.117,13.2148 4.817,15.8008 -4.926,3.8867 -18.555,2.3359 -25.368,3.9765 -14.832,3.6524 -11.605,29.1799 -11.605,40.3709 0,8.36 0,66.016 0,73.731"
         style="fill:#ffffff;fill-opacity:1;fill-rule:nonzero;stroke:none"
         transform="matrix(0.13333333,0,0,-0.13333333,0,61.453333)" />
      <path
         id="path28"
         d="m 894.707,163.18 c 0,0 0,-23.477 0,-32.891 -7.152,-17.246 -33.414,-59.4648 -56.898,-36.5742 -17.7,17.1872 -6.188,61.0352 10.863,67.6172 17.035,6.602 46.273,16.906 46.273,16.906 -0.14,-5.89 -0.238,-15.058 -0.238,-15.058 z m 88.109,-61.242 c -8.668,2.675 -10.66,-1.903 -16.992,-6.4927 -34.043,-24.5117 -26.801,34.1207 -26.801,49.8637 0,2.285 0,17.871 0,17.871 v 22.793 c 0,13.359 -0.761,53.59 -1.035,57.867 -0.312,5.262 -0.859,10.785 -3.09,15.969 -3.394,8.023 -15.539,17.5 -22.675,19.918 -11.606,3.91 -23.52,2.992 -36.071,2.992 -24.261,0 -48.652,-11.36 -65.941,-27.891 -8.762,-8.375 -46.914,-49.828 -21.148,-58.25 26.902,-8.808 34.167,21.684 43.3,39.332 8.93,17.278 26.66,37.035 48.934,28.879 17.445,-6.379 14.621,-30.285 14.621,-45.258 0,-3.523 -0.367,-14.808 -0.684,-29.047 0,0 -54.738,-14.054 -75.601,-26.398 -20.852,-12.352 -23.836,-18.914 -29.016,-26.824 -13.633,-20.821 -15.984,-48.6448 3.074,-67.6878 11.34,-11.3164 35.817,-14.5312 50.547,-7.4883 19.621,9.3829 33.559,19.1094 49.434,34.3243 -0.555,-11.5118 11.492,-25.4766 20.613,-31.8047 10.254,-7.1407 24.629,-8.0664 36.129,-2.5117 11.738,5.7226 22.141,14.2187 29.84,24.4257 2.324,3.0664 9.906,13.1446 2.562,15.4185"
         style="fill:#ffffff;fill-opacity:1;fill-rule:nonzero;stroke:none"
         transform="matrix(0.13333333,0,0,-0.13333333,0,61.453333)" />
      <path
         id="path29"
         d="m 1069.93,182.758 c 0,0 0,138.41 0,211.594 2.72,17.925 -22.68,-1.461 -26.83,-4.055 -12.52,-7.879 -26.86,-9.176 -40.69,-13.66 -4.93,-1.617 -7.418,-11.989 -3.601,-15.719 4.881,-4.781 15.651,-1.746 19.061,-10.137 3.27,-8.062 2.58,-24.136 2.58,-35.289 0,-42.523 0,-71.594 0,-114.129 0,-5.722 0,-18.605 0,-18.605 v -23.192 c 0,0 0,-19.035 0,-28.359 0,-14.875 -0.36,-33.2343 -2.34,-44.6289 -1.48,-8.6914 -11.45,-9.0156 -19.044,-9.9218 -8.472,-1.0352 -8.503,-2.7266 -8.503,-10.793 0,-8.6992 31.767,-0.9063 38.137,-0.457 16.09,1.082 32.48,-0.2149 48.44,-2.0821 6.77,-0.7812 32.4,-6.2969 24.71,9.1406 -5.57,11.2227 -29.23,-0.6523 -31.92,17.168 -1.71,11.2502 0,29.0432 0,42.9222 0,3.758 0,27.011 0,27.011 v 23.192"
         style="fill:#ffffff;fill-opacity:1;fill-rule:nonzero;stroke:none"
         transform="matrix(0.13333333,0,0,-0.13333333,0,61.453333)" />
      <path
         id="path30"
         d="m 1460.16,182.758 c 0,0 0,0.703 0,10.148 0,7.949 0,15.922 0,23.864 0,12.183 -5.52,22.195 -10.28,28.949 -12.35,17.562 -38.26,40.945 -66.99,34.945 -24.11,-5.039 -47.76,-24.996 -59.78,-47.098 -13.13,25.922 -40.18,49.075 -70.09,47.098 -26.14,-1.742 -48.49,-21.355 -62.1,-41.016 0,13.649 0,27.321 0,41.016 0,8.082 -17.17,-9.566 -18.28,-10.629 -7.24,-7.094 -16.54,-15.219 -25.68,-19.719 -5.42,-2.675 -32.45,-11.402 -25.84,-19.796 3.83,-4.883 20.27,0.601 22.16,-8.614 1.92,-9.218 2.56,-39.148 2.56,-39.148 l 0.16,-23.192 c 0,0 0,-19.035 0,-28.359 0,-14.875 -0.36,-33.2343 -2.32,-44.6289 -1.49,-8.6914 -11.47,-9.0156 -19.05,-9.9218 -8.49,-1.0352 -8.51,-2.7266 -8.51,-10.793 0,-8.6992 31.77,-0.9063 38.13,-0.457 16.1,1.082 32.49,-0.2149 48.44,-2.0821 6.77,-0.7812 32.41,-6.2969 24.71,9.1406 -5.56,11.2227 -31.45,-0.6523 -34.14,17.168 -1.66,11.2502 -1.77,29.0432 -1.77,42.9222 0,3.758 0,27.011 0,27.011 v 23.192 c 0,0 0,27.183 0,34.586 13.22,23.82 44.18,41.859 69.74,23.078 8.01,-5.883 14.83,-15.742 16.55,-28.145 0.74,-5.371 2.03,-10.679 2.03,-16.207 0,-9.902 0,-13.312 0,-13.312 v -23.192 c 0,0 0,-19.035 0,-28.359 0,-14.875 -1.21,-33.2343 -3.12,-44.6289 -1.45,-8.6914 -11.2,-9.0156 -18.61,-9.9218 -8.26,-1.0352 -8.29,-2.7266 -8.29,-10.793 0,-8.6992 31,-0.9063 37.24,-0.457 15.7,1.082 31.72,-0.2149 47.28,-2.0821 6.63,-0.7812 31.66,-6.2969 24.16,9.1406 -5.45,11.2227 -27.33,-0.6523 -29.95,17.168 -1.64,11.2502 -1.25,29.0432 -1.25,42.9222 0,3.758 0,27.011 0,27.011 l -0.04,23.192 c 0,0 0,8.176 0,16.847 0,8.59 -0.43,13.5 4.14,20.778 4.09,6.551 8.97,11.855 14.41,17.226 13.93,13.692 39.29,14.168 53.35,0.235 10.5,-10.391 14.68,-25.156 14.68,-39.586 0,-5.645 0,-15.5 0,-15.5 v -23.192 c 0,0 0,-19.035 0,-28.359 0,-14.875 1.84,-33.2343 0,-44.6289 -1.46,-8.6914 -14.36,-9.0156 -21.63,-9.9218 -8.06,-1.0352 -8.08,-2.7266 -8.08,-10.793 0,-8.6992 30.28,-0.9063 36.37,-0.457 15.35,1.082 30.99,-0.2149 46.22,-2.0821 6.45,-0.7812 30.89,-6.2969 23.57,9.1406 -5.3,11.2227 -26.69,-0.6523 -29.24,17.168 -1.59,11.2502 -1.24,29.0432 -1.24,42.9222 0,3.758 0,27.011 0,27.011 l 0.38,23.192"
         style="fill:#ffffff;fill-opacity:1;fill-rule:nonzero;stroke:none"
         transform="matrix(0.13333333,0,0,-0.13333333,0,61.453333)" />
      <path
         id="path31"
         d="m 1702.47,190.211 c -6.54,12.461 -27.02,26.422 -45.02,37.242 -11.38,6.883 -57.43,34.836 -65.93,41.684 -7.81,6.293 -19.65,20.234 -23.03,28.941 -5.05,12.875 -2.66,25.281 -0.27,38.692 4.18,23.793 34.04,38.675 57.79,33.164 29.69,-6.887 39.47,-29.168 46.41,-55.383 1.01,-3.789 2.68,-15.738 5.45,-17.449 7.33,-4.551 18.1,-1.387 18.84,6.367 1.53,15.691 -0.32,32.816 -1.56,48.562 -1.07,13.426 -11.57,20.043 -24.83,24.977 -13.58,5.078 -28.33,9.355 -43.16,9.355 -26.82,0 -55.97,-7.265 -75.43,-25.519 -21.15,-19.824 -31.26,-42.344 -32.45,-70.633 -0.86,-20.758 6.33,-33.246 26.17,-51.859 12,-11.211 39.91,-28.067 53.7,-35.817 13.79,-7.734 48.6,-25.168 58.98,-35.84 15.93,-16.367 10.59,-33.39 7.72,-47.656 -2.18,-10.742 -7.42,-22.1406 -15.72,-28.9257 -19.88,-16.2422 -49.97,-20.8985 -74.37,-9.2774 -27.79,13.2305 -42.87,38.6331 -42.87,68.1331 0,5.859 0.22,12.746 -7,12.746 -10.61,0 -10.8,-4.231 -10.8,-13.625 0,-17.129 1.05,-34.16 1.05,-51.2892 0,-27.461 39.8,-33.543 61.2,-36.8242 26.09,-4.0235 59.46,-0.6758 82.2,11.5234 19.27,10.332 33.62,26.2773 42.93,45.098 3.83,7.734 9.17,21.523 8.36,37.039 -0.82,15.5 -1.83,24.152 -8.36,36.574"
         style="fill:#ffffff;fill-opacity:1;fill-rule:nonzero;stroke:none"
         transform="matrix(0.13333333,0,0,-0.13333333,0,61.453333)" />
      <path
         id="path32"
         d="m 1936.06,185.406 v 0"
         style="fill:#ffffff;fill-opacity:1;fill-rule:nonzero;stroke:none"
         transform="matrix(0.13333333,0,0,-0.13333333,0,61.453333)" />
      <path
         id="path33"
         d="m 1860.72,204.098 c -23.66,0 -47.32,0 -70.97,0 6.56,24.976 16.92,44.34 39.69,58.629 21.59,13.543 60.31,-4.317 58.21,-30.293 2.42,-15.371 -11.34,-28.336 -26.93,-28.336 z m -1.92,78.14 c -51.1,6.817 -94.55,-24.804 -112.36,-68.359 -2.61,-6.445 -4.41,-10.934 -5.9,-17.516 -1.22,-5.39 -2.5,-10.957 -2.5,-10.957 V 163.07 c 2.29,-50.359 43.07,-101.2302 98.09,-104.5387 25.32,-1.5352 57.33,9.6367 77.06,25.2031 9.83,7.7461 17.79,15.6054 21.89,26.5746 3.44,9.168 -0.74,18.574 -9.3,6.336 -11.71,-16.8169 -39.96,-25.0591 -59.67,-27.645 -18.32,-2.4141 -40.18,9.5313 -51.62,22.285 -10.28,11.445 -28.56,30.039 -26.15,74.121 17.76,0 147.67,0 147.72,0 0.13,0.371 0.37,1.094 1.05,3.067 11.38,48.14 -31.25,87.5 -78.31,93.765"
         style="fill:#ffffff;fill-opacity:1;fill-rule:nonzero;stroke:none"
         transform="matrix(0.13333333,0,0,-0.13333333,0,61.453333)" />
      <path
         id="path34"
         d="m 2300.38,187.379 c -22.99,6.504 -30.91,11.25 -41.83,21.285 -12.91,11.856 -11.62,28.633 -1.25,44.957 10.38,16.336 50.98,15.942 62.38,4.215 6.44,-6.555 12.51,-14.856 15.5,-23.332 1.68,-4.727 2.58,-12.758 6.97,-15.371 9.89,-5.918 12.16,6.57 12.79,12.906 1.04,10.891 2.6,31.832 -5.88,39.184 -9.39,8.113 -28.31,12.519 -46.34,12.343 -18.03,-0.168 -37.37,0.161 -56.99,-10.386 -19.64,-10.539 -33.66,-37.367 -34.44,-47.145 -0.79,-9.765 -3.35,-19.914 8.82,-34.808 12.18,-14.875 51.16,-28.45 76.1,-34.934 24.94,-6.492 37.96,-33.398 26.65,-58.2227 -3.97,-8.7187 -8.66,-15.2539 -17.68,-20.8789 -10.7,-6.668 -24.77,-5.4297 -36.34,-4.7656 -25.3,1.418 -37,36.4572 -40.99,55.1172 -0.85,4.043 -2.41,12.754 -6.68,15.187 -7.3,4.102 -10.05,-2.804 -10.69,-7.968 -1.89,-15.422 0,-32.09 0,-47.6097 0,-22.1875 37.56,-28.789 57.32,-28.789 28.82,0 54.73,5.3242 75.14,24.582 19.86,18.6597 24.44,36.0747 20.36,58.1247 -4.09,22.051 -39.9,39.785 -62.92,46.309"
         style="fill:#ffffff;fill-opacity:1;fill-rule:nonzero;stroke:none"
         transform="matrix(0.13333333,0,0,-0.13333333,0,61.453333)" />
      <path
         id="path35"
         d="m 2171.58,184.723 c 0,0 -1.45,37.699 -5.44,48.382 -3.45,9.211 -6.75,15.383 -11.84,22.286 -12.54,17.011 -36.48,27.355 -56.18,27.355 -13.73,0 -23.9,-3.742 -36.07,-9.641 -6.97,-3.378 -14.1,-8.285 -19.57,-13.66 -5.92,-5.824 -15.67,-13.199 -18.55,-21.281 0,13.25 0,26.5 0,39.758 0,10.769 -10.44,1.805 -14.43,-2.285 -6.9,-7.078 -14.24,-15.899 -22.98,-21.028 -9.47,-5.605 -23.12,-9.062 -30.86,-16.648 -8.62,-8.496 15.12,-12.395 18.55,-15.781 6.55,-6.407 9.16,-13.215 9.46,-21.793 0.07,-3.106 -0.05,-15.196 -0.05,-15.196 l 0.05,-23.312 c 0,0 0,-20.606 0,-30.762 0,-3.574 0,-7.176 0,-10.762 0,-14.851 2.3,-32.8706 -13.85,-39.7066 -5.55,-2.3711 -15.83,-0.8086 -17.28,-7.957 -2.17,-10.7344 5.38,-10.5391 14.14,-9.0625 15.14,2.5078 30.53,4.2774 45.91,3.3281 7.18,-0.457 39.43,-9.2968 43.29,-3.5625 9.67,14.3164 -20.19,14.1407 -26.83,23.8672 -6.2,9.0703 -4.09,34.6563 -4.09,45.5153 0,7.442 0.15,29.395 0.15,29.395 l -0.15,23.312 c 0,0 0,1.758 0,10.137 0,17.555 3.36,25.004 13.63,38.473 7.77,10.203 26.83,14.754 38.94,15.219 28.6,1.058 44.23,-13.735 48.69,-40.075 0.65,-3.808 1.78,-24.515 1.78,-24.515 l 0.32,-22.551 c 0,0 0,-20.613 0,-30.762 0,-3.594 0,-7.176 0,-10.762 0,-14.871 2.36,-34.4722 -11.84,-39.9996 -5.62,-2.1953 -15.83,-0.8086 -17.29,-7.957 -2.17,-10.7344 5.37,-10.5391 14.14,-9.0625 15.15,2.5078 30.52,4.2774 45.91,3.3281 7.16,-0.457 39.4,-9.2968 43.26,-3.5625 9.68,14.3164 -19.96,14.2774 -26.8,23.8672 -4.89,6.875 -4.12,18.1333 -4.12,29.0043 0,7.429 0,68.457 0,68.457"
         style="fill:#ffffff;fill-opacity:1;fill-rule:nonzero;stroke:none"
         transform="matrix(0.13333333,0,0,-0.13333333,0,61.453333)" />
    </g>
  </g>
</svg>
