<svg width="auto" height="auto" viewBox="0 0 86 86" fill="none" xmlns="http://www.w3.org/2000/svg">
<g clip-path="url(#clip0_32819_6123)">
<path d="M24.629 39.6793C25.8715 31.9626 31.9674 25.8888 39.6954 24.6808V0.506751C18.7046 1.89545 1.92524 18.6721 0.5 39.6793H24.629Z" fill="#1B375B"/>
<path d="M27.8629 53.2189C26.2307 50.9689 25.0897 48.3377 24.629 45.4737H0.5C1.05196 53.613 3.91813 61.1133 8.43233 67.3363L27.8629 53.2189Z" fill="#3976C4"/>
<path d="M29.4886 82.6569L36.9118 59.8102C33.2381 58.6143 30.0856 56.2822 27.8627 53.2189L8.43213 67.3363C13.6011 74.4603 20.9486 79.8749 29.4886 82.6569Z" fill="#4B91D5"/>
<path d="M42.5117 84.7505C47.0632 84.7505 51.4302 83.9936 55.5359 82.6562L48.1128 59.8102C46.3477 60.3844 44.4697 60.7121 42.5117 60.7121C40.5546 60.7121 38.678 60.3851 36.9129 59.8102L29.4897 82.6569C33.5948 83.9943 37.9612 84.7505 42.5117 84.7505Z" fill="#61A6DF"/>
<path d="M55.5359 82.6562C64.0767 79.8736 71.4242 74.459 76.5925 67.3335L57.1619 53.2168C54.9391 56.2808 51.7864 58.6137 48.1128 59.8103L55.5359 82.6562Z" fill="#8CC5E8"/>
<path d="M45.3276 24.6808C53.0559 25.8888 59.1523 31.9619 60.394 39.6793H84.5231C83.0978 18.6721 66.3184 1.89472 45.3276 0.506751V24.6808Z" fill="#A9D4EE"/>
<path d="M76.5918 67.335C81.1059 61.1127 83.9714 53.6131 84.5233 45.4738H60.3942C59.9338 48.3371 58.7933 50.9675 57.1611 53.2175L76.5918 67.335Z" fill="#A9D4EE"/>
<path d="M45.3276 12.6654V24.6808C53.0559 25.8888 59.1523 31.9619 60.394 39.6793H72.4187C71.0483 25.369 59.6486 13.9971 45.3276 12.6654Z" fill="#BCE0F2"/>
<path d="M57.1611 53.2176L66.8056 60.2245C69.8768 56.001 71.8939 50.9591 72.4189 45.4738H60.3942C59.9338 48.3371 58.7933 50.9675 57.1611 53.2176Z" fill="#BCE0F2"/>
<path d="M12.6045 39.6793H24.629C25.8715 31.9626 31.9673 25.8888 39.6954 24.6808V12.6654C25.3744 13.9978 13.9747 25.369 12.6045 39.6793Z" fill="#23496D"/>
<path d="M24.629 45.4737H12.6045C13.13 50.9597 15.1465 56.0016 18.219 60.2258L27.8629 53.2189C26.2307 50.9689 25.0897 48.3377 24.629 45.4737Z" fill="#4B91D5"/>
<path d="M33.2314 71.1394L36.9122 59.8103C33.2385 58.6144 30.086 56.2823 27.8631 53.219L18.2192 60.2259C21.9087 65.2985 27.139 69.1593 33.2314 71.1394Z" fill="#599FDC"/>
<path d="M42.5116 72.6295C45.7554 72.6295 48.8674 72.0897 51.7934 71.1386L48.1126 59.8102C46.3475 60.3843 44.4695 60.7121 42.5116 60.7121C40.5544 60.7121 38.6778 60.3851 36.9127 59.8102L33.2319 71.1393C36.1572 72.0897 39.2684 72.6295 42.5116 72.6295Z" fill="#7CBAE7"/>
<path d="M51.7936 71.1387C57.886 69.1586 63.117 65.297 66.8064 60.2237L57.1619 53.2168C54.9391 56.2808 51.7864 58.6137 48.1128 59.8102L51.7936 71.1387Z" fill="#9DD0EC"/>
</g>
</svg>