<?xml version="1.0" encoding="UTF-8" standalone="no"?>
<svg
   version="1.1"
   viewBox="0 0 132.73238 36.904999"
   id="svg38"
   sodipodi:docname="PalmSens For Developers logo.svg"
   width="132.73238"
   height="36.904999"
   inkscape:version="1.4.2 (f4327f4, 2025-05-13)"
   inkscape:export-filename="PalmSens For Developers logo.png"
   inkscape:export-xdpi="96"
   inkscape:export-ydpi="96"
   xmlns:inkscape="http://www.inkscape.org/namespaces/inkscape"
   xmlns:sodipodi="http://sodipodi.sourceforge.net/DTD/sodipodi-0.dtd"
   xmlns="http://www.w3.org/2000/svg"
   xmlns:svg="http://www.w3.org/2000/svg">
  <defs
     id="defs38" />
  <sodipodi:namedview
     id="namedview38"
     pagecolor="#ffffff"
     bordercolor="#000000"
     borderopacity="0.25"
     inkscape:showpageshadow="2"
     inkscape:pageopacity="0.0"
     inkscape:pagecheckerboard="0"
     inkscape:deskcolor="#d1d1d1"
     inkscape:zoom="14.938629"
     inkscape:cx="70.756157"
     inkscape:cy="15.764499"
     inkscape:window-width="3840"
     inkscape:window-height="2054"
     inkscape:window-x="2869"
     inkscape:window-y="-11"
     inkscape:window-maximized="1"
     inkscape:current-layer="Layer_1" />
  <!-- Generator: Adobe Illustrator 29.8.2, SVG Export Plug-In . SVG Version: 2.1.1 Build 3)  -->
  <g
     id="Layer_2"
     transform="translate(-25.93,-20.731)"
     style="display:inline">
    <g
       opacity="0.23"
       id="g1">
      <path
         d="m 36.168,21.653 c -0.9,0.178 -1.656,0.499 -2.273,0.964 -0.406,0.342 -0.73,0.776 -0.969,1.302 -0.241,0.526 -0.361,1.063 -0.361,1.611 0,0.928 0.154,2.035 0.463,3.32 0.295,1.367 0.443,2.556 0.443,3.568 0,0.723 -0.139,1.449 -0.417,2.172 -0.276,0.726 -0.691,1.396 -1.247,2.011 -0.528,0.641 -1.108,1.14 -1.736,1.495 -0.628,0.357 -1.51,0.685 -2.642,0.986 v 0.082 c 1.145,0.369 2.053,0.752 2.725,1.148 0.672,0.396 1.26,0.894 1.764,1.497 0.519,0.588 0.913,1.244 1.184,1.967 0.269,0.726 0.406,1.442 0.406,2.153 0,0.779 -0.148,1.844 -0.443,3.199 -0.309,1.353 -0.463,2.529 -0.463,3.525 0,0.67 0.146,1.299 0.435,1.888 0.289,0.586 0.663,1.032 1.117,1.331 0.432,0.357 1.104,0.622 2.014,0.8 0,0 -3.064,0.646 -4.128,0.051 -1.067,-0.593 -1.912,-1.403 -2.542,-2.428 -0.628,-1.027 -0.941,-2.105 -0.941,-3.24 0,-0.916 0.191,-2.172 0.571,-3.773 0.272,-1.133 0.406,-2.199 0.406,-3.197 0,-1.177 -0.306,-2.134 -0.923,-2.871 -0.615,-0.738 -2.659,-1.92 -2.659,-1.92 0,0 1.595,-1.203 2.125,-1.627 0.443,-0.369 0.797,-0.875 1.062,-1.516 0.263,-0.644 0.395,-1.326 0.395,-2.052 0,-0.969 -0.122,-1.994 -0.369,-3.074 -0.38,-1.613 -0.571,-2.83 -0.571,-3.65 0,-1.039 0.295,-2.071 0.886,-3.096 0.591,-1.025 1.334,-1.8 2.29,-2.399 0.956,-0.599 4.398,-0.227 4.398,-0.227 z"
         fill="#4b78ac"
         id="path1" />
    </g>
    <g
       opacity="0.23"
       id="g2">
      <path
         d="m 41.117,56.86 c 0.9,-0.178 1.656,-0.499 2.273,-0.964 0.406,-0.342 0.73,-0.776 0.969,-1.302 0.241,-0.526 0.361,-1.063 0.361,-1.611 0,-0.928 -0.154,-2.035 -0.463,-3.32 -0.295,-1.367 -0.443,-2.556 -0.443,-3.568 0,-0.723 0.139,-1.449 0.417,-2.172 0.276,-0.726 0.691,-1.396 1.247,-2.011 0.528,-0.641 1.108,-1.14 1.736,-1.495 0.628,-0.357 1.51,-0.685 2.642,-0.986 v -0.082 c -1.145,-0.369 -2.053,-0.752 -2.725,-1.148 -0.672,-0.396 -1.26,-0.894 -1.764,-1.497 -0.519,-0.588 -0.913,-1.244 -1.184,-1.967 -0.269,-0.726 -0.406,-1.442 -0.406,-2.153 0,-0.779 0.148,-1.844 0.443,-3.199 0.309,-1.353 0.463,-2.529 0.463,-3.525 0,-0.67 -0.146,-1.299 -0.435,-1.888 -0.289,-0.586 -0.663,-1.032 -1.117,-1.331 -0.432,-0.357 -1.104,-0.622 -2.014,-0.8 0,0 3.064,-0.646 4.128,-0.051 1.067,0.593 1.912,1.403 2.542,2.428 0.628,1.027 0.941,2.105 0.941,3.24 0,0.916 -0.191,2.172 -0.571,3.773 -0.272,1.133 -0.406,2.199 -0.406,3.197 0,1.177 0.306,2.134 0.923,2.871 0.615,0.738 2.659,1.92 2.659,1.92 0,0 -1.595,1.203 -2.125,1.627 -0.443,0.369 -0.797,0.875 -1.062,1.516 -0.263,0.644 -0.395,1.326 -0.395,2.052 0,0.969 0.122,1.994 0.369,3.074 0.38,1.613 0.571,2.83 0.571,3.65 0,1.039 -0.295,2.071 -0.886,3.096 -0.591,1.025 -1.334,1.8 -2.29,2.399 -0.956,0.599 -4.398,0.227 -4.398,0.227 z"
         fill="#4b78ac"
         id="path2" />
    </g>
  </g>
  <g
     id="Layer_3"
     display="none"
     transform="translate(-25.93,-20.731)">
    <path
       d="m 38.763,62.282 c 12.15,0 22.132,-9.43 23.03,-21.354 h -46.06 c 0.898,11.924 10.88,21.354 23.03,21.354 z"
       fill="none"
       id="path3" />
    <g
       id="g5">
      <path
         d="m 10.025,37.588 h 5.684 C 16.508,26.165 25.647,17.023 37.061,16.192 V 10.495 C 22.517,11.341 10.84,23.035 10.025,37.587 Z"
         fill="#28295e"
         id="path4" />
      <path
         d="M 67.5,40.956 H 61.803 C 60.972,52.37 51.83,61.509 40.407,62.308 v 5.684 C 54.959,67.177 66.653,55.5 67.499,40.956 Z"
         fill="#bbc8de"
         id="path5" />
    </g>
  </g>
  <g
     id="Layer_1"
     transform="translate(-25.93,-20.731)"
     style="display:inline">
    <g
       id="g12">
      <path
         d="m 42.315,20.732 c -0.406,0 -0.715,0.093 -0.926,0.28 -0.211,0.187 -0.317,0.435 -0.317,0.743 0,0.136 0.028,0.259 0.074,0.373 v 0 c 0.351,0.197 0.699,0.396 1.036,0.614 v 0 c 0.074,0.011 0.124,0.028 0.207,0.036 0.231,0.024 0.448,0.075 0.657,0.142 v 0 l 1.281,-1.763 C 43.725,20.884 43.06,20.731 42.316,20.731"
         fill="#bbc8de"
         id="path6" />
      <path
         d="m 44.325,21.158 v 0 l -1.281,1.763 c 0.511,0.163 0.961,0.449 1.342,0.87 0.32,0.354 0.533,0.775 0.662,1.247 v 0 c 0.815,0.792 1.555,1.657 2.215,2.587 v -1.579 c 0,-1.609 -0.577,-2.974 -1.731,-4.095 -0.362,-0.341 -0.77,-0.595 -1.206,-0.793"
         fill="#a1b4d2"
         id="path7" />
      <path
         d="m 50.693,38.209 0.008,0.169 v 0 c 0,0.598 -0.029,1.19 -0.084,1.774 0.19,-0.06 0.348,-0.135 0.449,-0.236 0.179,-0.179 0.268,-0.423 0.268,-0.731 0,-0.325 -0.09,-0.577 -0.268,-0.756 -0.09,-0.09 -0.214,-0.163 -0.373,-0.22"
         fill="#7d98c1"
         id="path8" />
      <path
         d="m 47.263,49.131 c -0.62,0.874 -1.313,1.691 -2.072,2.444 v 0.723 0 c 0,0.894 -0.264,1.641 -0.792,2.242 -0.528,0.601 -1.199,0.943 -2.011,1.024 -0.52,0.049 -0.853,0.154 -0.999,0.317 -0.211,0.195 -0.317,0.439 -0.317,0.731 0,0.292 0.106,0.536 0.317,0.731 0.211,0.195 0.512,0.293 0.902,0.293 1.365,0 2.535,-0.508 3.51,-1.524 0.975,-1.016 1.463,-2.287 1.463,-3.815 V 49.13"
         fill="#4b78ac"
         id="path9" />
      <path
         d="m 41.145,22.129 c 0.052,0.133 0.13,0.253 0.243,0.358 0.136,0.122 0.418,0.202 0.792,0.257 -0.337,-0.218 -0.685,-0.418 -1.036,-0.614"
         fill="#c7d1e3"
         id="path10" />
      <path
         d="m 45.048,25.039 c 0.087,0.319 0.143,0.658 0.143,1.032 v 7.809 l 2.072,-0.673 v -5.58 0 c -0.659,-0.93 -1.4,-1.795 -2.215,-2.587"
         fill="#b2c0d9"
         id="path11" />
      <path
         d="m 47.263,33.205 v 0 l -2.072,0.673 v 0.942 c 0,1.008 0.187,1.877 0.56,2.608 0.293,0.553 0.845,1.138 1.658,1.755 v 0 c -0.829,0.617 -1.406,1.239 -1.731,1.865 -0.325,0.626 -0.487,1.45 -0.487,2.474 v 8.053 c 0.759,-0.754 1.452,-1.57 2.072,-2.444 v -5.608 0 c 0,-0.894 0.264,-1.645 0.792,-2.255 0.528,-0.609 1.215,-0.946 2.06,-1.011 0.197,-0.022 0.356,-0.06 0.501,-0.106 0.055,-0.584 0.084,-1.176 0.084,-1.774 l -0.008,-0.169 v 0 C 50.534,38.151 50.341,38.111 50.114,38.086 49.285,38.021 48.603,37.684 48.066,37.074 47.53,36.465 47.262,35.713 47.262,34.819 v -1.615"
         fill="#92a8cb"
         id="path12" />
    </g>
    <g
       id="g16">
      <path
         d="m 33.07,54.758 -1.255,1.726 c 0.847,0.763 1.888,1.152 3.132,1.152 0.406,0 0.715,-0.094 0.926,-0.28 0.211,-0.187 0.317,-0.435 0.317,-0.743 0,-0.293 -0.106,-0.537 -0.317,-0.731 -0.163,-0.146 -0.496,-0.244 -1,-0.293 -0.705,-0.072 -1.303,-0.357 -1.804,-0.831"
         fill="#bbc8de"
         id="path13" />
      <path
         d="m 32.071,44.721 -2.072,0.673 v 6.928 c 0,1.609 0.577,2.974 1.73,4.095 l 0.086,0.066 1.255,-1.726 -0.194,-0.181 C 32.339,53.983 32.072,53.223 32.072,52.297 V 44.72"
         fill="#a1b4d2"
         id="path14" />
      <path
         d="m 30.246,39.504 h -4.267 c 0.041,0.171 0.106,0.323 0.219,0.436 0.179,0.179 0.495,0.293 0.951,0.341 0.829,0.065 1.511,0.402 2.048,1.012 0.536,0.609 0.804,1.361 0.804,2.254 v 1.848 l 2.072,-0.673 v -1.174 c 0,-1.007 -0.187,-1.877 -0.561,-2.608 -0.241,-0.456 -0.67,-0.935 -1.265,-1.435"
         fill="#7d98c1"
         id="path15" />
      <path
         d="m 29.853,39.184 c 0.829,-0.617 1.406,-1.239 1.731,-1.865 0.325,-0.625 0.488,-1.45 0.488,-2.474 V 26.07 c 0,-0.894 0.264,-1.641 0.792,-2.242 0.528,-0.601 1.198,-0.943 2.011,-1.024 0.52,-0.049 0.853,-0.154 1,-0.317 0.211,-0.195 0.317,-0.439 0.317,-0.731 0,-0.292 -0.106,-0.536 -0.317,-0.731 -0.212,-0.195 -0.512,-0.293 -0.902,-0.293 -1.365,0 -2.535,0.508 -3.51,1.524 -0.975,1.016 -1.462,2.287 -1.462,3.815 v 8.775 c 0,0.894 -0.264,1.645 -0.792,2.255 -0.528,0.609 -1.215,0.946 -2.06,1.011 -0.455,0.049 -0.772,0.163 -0.951,0.341 -0.179,0.178 -0.268,0.422 -0.268,0.731 0,0.12 0.025,0.22 0.05,0.32 h 4.267 c -0.126,-0.106 -0.25,-0.212 -0.393,-0.32 z"
         fill="#28295e"
         id="path16" />
    </g>
    <g
       id="g29"
       style="display:none">
      <path
         d="m 58.483,48.499 h 3.896 v 0.665 h -3.107 v 1.886 h 2.725 v 0.665 h -2.725 v 2.716 H 58.483 V 48.5 Z"
         fill="#4b78ac"
         id="path17" />
      <path
         d="m 62.902,52.287 c 0,-0.316 0.044,-0.611 0.133,-0.885 0.088,-0.274 0.221,-0.512 0.398,-0.714 0.177,-0.202 0.395,-0.361 0.652,-0.478 0.257,-0.117 0.558,-0.175 0.901,-0.175 0.337,0 0.637,0.058 0.897,0.175 0.26,0.116 0.479,0.275 0.656,0.478 0.177,0.203 0.31,0.44 0.399,0.714 0.088,0.274 0.133,0.569 0.133,0.885 0,0.316 -0.044,0.609 -0.133,0.88 -0.089,0.271 -0.222,0.508 -0.399,0.71 -0.177,0.202 -0.396,0.361 -0.656,0.478 -0.26,0.117 -0.56,0.174 -0.897,0.174 -0.344,0 -0.644,-0.058 -0.901,-0.174 -0.258,-0.116 -0.475,-0.275 -0.652,-0.478 -0.177,-0.203 -0.31,-0.439 -0.398,-0.71 -0.089,-0.271 -0.133,-0.565 -0.133,-0.88 z m 0.748,0 c 0,0.26 0.034,0.491 0.104,0.693 0.07,0.202 0.165,0.371 0.287,0.507 0.122,0.136 0.265,0.24 0.428,0.312 0.164,0.072 0.336,0.108 0.52,0.108 0.184,0 0.355,-0.036 0.519,-0.108 0.163,-0.072 0.306,-0.176 0.428,-0.312 0.122,-0.136 0.217,-0.305 0.287,-0.507 0.07,-0.202 0.104,-0.433 0.104,-0.693 0,-0.26 -0.035,-0.492 -0.104,-0.694 -0.069,-0.202 -0.165,-0.372 -0.287,-0.511 -0.122,-0.138 -0.265,-0.244 -0.428,-0.316 -0.164,-0.072 -0.336,-0.108 -0.519,-0.108 -0.183,0 -0.356,0.036 -0.52,0.108 -0.163,0.072 -0.306,0.178 -0.428,0.316 -0.122,0.139 -0.217,0.309 -0.287,0.511 -0.07,0.202 -0.104,0.434 -0.104,0.694 z"
         fill="#4b78ac"
         id="path18" />
      <path
         d="m 67.878,50.136 h 0.665 v 0.905 h 0.017 c 0.171,-0.349 0.382,-0.606 0.631,-0.772 0.249,-0.167 0.565,-0.244 0.947,-0.233 v 0.748 c -0.282,0 -0.523,0.039 -0.723,0.116 -0.2,0.077 -0.36,0.191 -0.482,0.34 -0.122,0.149 -0.21,0.333 -0.266,0.548 -0.056,0.216 -0.083,0.46 -0.083,0.731 v 1.911 h -0.706 z"
         fill="#4b78ac"
         id="path19" />
      <path
         d="m 73.095,48.499 h 2.035 c 0.914,0 1.617,0.232 2.11,0.698 0.493,0.465 0.739,1.174 0.739,2.126 0,0.499 -0.055,0.94 -0.166,1.325 -0.111,0.385 -0.282,0.709 -0.515,0.972 -0.232,0.263 -0.529,0.464 -0.889,0.603 -0.36,0.138 -0.787,0.208 -1.279,0.208 H 73.095 V 48.5 Z m 0.789,5.267 h 1.312 c 0.088,0 0.199,-0.007 0.333,-0.021 0.133,-0.014 0.274,-0.047 0.423,-0.1 0.15,-0.052 0.298,-0.128 0.444,-0.229 0.147,-0.1 0.278,-0.235 0.395,-0.407 0.116,-0.172 0.211,-0.386 0.286,-0.644 0.075,-0.257 0.112,-0.569 0.112,-0.935 0,-0.354 -0.035,-0.671 -0.104,-0.951 -0.069,-0.28 -0.183,-0.517 -0.34,-0.71 -0.157,-0.193 -0.361,-0.343 -0.61,-0.449 -0.25,-0.105 -0.557,-0.158 -0.922,-0.158 h -1.329 v 4.602 z"
         fill="#4b78ac"
         id="path20" />
      <path
         d="m 82.498,53.068 c -0.094,0.477 -0.302,0.839 -0.624,1.088 -0.322,0.249 -0.727,0.374 -1.215,0.374 -0.344,0 -0.643,-0.057 -0.895,-0.17 -0.253,-0.113 -0.465,-0.27 -0.637,-0.469 -0.172,-0.199 -0.301,-0.438 -0.387,-0.714 -0.086,-0.277 -0.135,-0.579 -0.146,-0.905 0,-0.321 0.05,-0.619 0.15,-0.893 0.1,-0.274 0.239,-0.511 0.419,-0.71 0.18,-0.199 0.393,-0.354 0.64,-0.465 0.246,-0.111 0.516,-0.167 0.81,-0.167 0.382,0 0.699,0.079 0.951,0.237 0.252,0.158 0.454,0.359 0.606,0.603 0.152,0.244 0.258,0.509 0.316,0.797 0.058,0.288 0.082,0.562 0.07,0.822 h -3.214 c -0.006,0.188 0.017,0.367 0.066,0.536 0.05,0.169 0.13,0.319 0.241,0.449 0.111,0.13 0.252,0.234 0.424,0.312 0.171,0.078 0.374,0.116 0.606,0.116 0.293,0 0.537,-0.069 0.731,-0.208 0.194,-0.138 0.321,-0.349 0.382,-0.631 h 0.706 z m -0.689,-1.196 c -0.011,-0.166 -0.048,-0.324 -0.112,-0.474 -0.064,-0.149 -0.15,-0.278 -0.258,-0.386 -0.108,-0.108 -0.237,-0.194 -0.386,-0.257 -0.149,-0.063 -0.31,-0.096 -0.482,-0.096 -0.183,0 -0.347,0.032 -0.494,0.096 -0.146,0.063 -0.273,0.151 -0.378,0.262 -0.105,0.111 -0.188,0.24 -0.249,0.386 -0.061,0.147 -0.097,0.303 -0.108,0.469 z"
         fill="#4b78ac"
         id="path21" />
      <path
         d="m 85.223,54.43 h -0.756 l -1.595,-4.294 h 0.789 l 1.205,3.58 h 0.017 l 1.171,-3.58 h 0.739 z"
         fill="#4b78ac"
         id="path22" />
      <path
         d="m 91.112,53.068 c -0.094,0.477 -0.302,0.839 -0.624,1.088 -0.322,0.249 -0.727,0.374 -1.215,0.374 -0.344,0 -0.643,-0.057 -0.895,-0.17 -0.253,-0.113 -0.465,-0.27 -0.637,-0.469 -0.172,-0.199 -0.301,-0.438 -0.387,-0.714 -0.086,-0.277 -0.135,-0.579 -0.146,-0.905 0,-0.321 0.05,-0.619 0.15,-0.893 0.1,-0.274 0.239,-0.511 0.419,-0.71 0.18,-0.199 0.393,-0.354 0.64,-0.465 0.246,-0.111 0.516,-0.167 0.81,-0.167 0.382,0 0.699,0.079 0.951,0.237 0.252,0.158 0.454,0.359 0.606,0.603 0.152,0.244 0.258,0.509 0.316,0.797 0.058,0.288 0.082,0.562 0.07,0.822 h -3.214 c -0.006,0.188 0.017,0.367 0.066,0.536 0.05,0.169 0.13,0.319 0.241,0.449 0.111,0.13 0.252,0.234 0.424,0.312 0.171,0.078 0.374,0.116 0.606,0.116 0.293,0 0.537,-0.069 0.731,-0.208 0.194,-0.138 0.321,-0.349 0.382,-0.631 h 0.706 z m -0.69,-1.196 c -0.011,-0.166 -0.048,-0.324 -0.112,-0.474 -0.064,-0.149 -0.15,-0.278 -0.258,-0.386 -0.108,-0.108 -0.237,-0.194 -0.386,-0.257 -0.149,-0.063 -0.31,-0.096 -0.482,-0.096 -0.183,0 -0.347,0.032 -0.494,0.096 -0.146,0.063 -0.273,0.151 -0.378,0.262 -0.105,0.111 -0.188,0.24 -0.249,0.386 -0.061,0.147 -0.097,0.303 -0.108,0.469 z"
         fill="#4b78ac"
         id="path23" />
      <path
         d="m 91.942,48.499 h 0.706 v 5.931 h -0.706 z"
         fill="#4b78ac"
         id="path24" />
      <path
         d="m 93.512,52.287 c 0,-0.316 0.044,-0.611 0.133,-0.885 0.088,-0.274 0.221,-0.512 0.398,-0.714 0.177,-0.202 0.395,-0.361 0.652,-0.478 0.257,-0.117 0.558,-0.175 0.901,-0.175 0.337,0 0.637,0.058 0.897,0.175 0.26,0.116 0.479,0.275 0.656,0.478 0.177,0.203 0.31,0.44 0.399,0.714 0.088,0.274 0.133,0.569 0.133,0.885 0,0.316 -0.044,0.609 -0.133,0.88 -0.089,0.271 -0.222,0.508 -0.399,0.71 -0.177,0.202 -0.396,0.361 -0.656,0.478 -0.26,0.117 -0.56,0.174 -0.897,0.174 -0.344,0 -0.644,-0.058 -0.901,-0.174 -0.258,-0.116 -0.475,-0.275 -0.652,-0.478 -0.177,-0.203 -0.31,-0.439 -0.398,-0.71 -0.089,-0.271 -0.133,-0.565 -0.133,-0.88 z m 0.748,0 c 0,0.26 0.034,0.491 0.104,0.693 0.07,0.202 0.165,0.371 0.287,0.507 0.122,0.136 0.265,0.24 0.428,0.312 0.164,0.072 0.336,0.108 0.52,0.108 0.184,0 0.355,-0.036 0.519,-0.108 0.163,-0.072 0.306,-0.176 0.428,-0.312 0.122,-0.136 0.217,-0.305 0.287,-0.507 0.07,-0.202 0.104,-0.433 0.104,-0.693 0,-0.26 -0.035,-0.492 -0.104,-0.694 -0.069,-0.202 -0.165,-0.372 -0.287,-0.511 -0.122,-0.138 -0.265,-0.244 -0.428,-0.316 -0.164,-0.072 -0.336,-0.108 -0.519,-0.108 -0.183,0 -0.356,0.036 -0.52,0.108 -0.163,0.072 -0.306,0.178 -0.428,0.316 -0.122,0.139 -0.217,0.309 -0.287,0.511 -0.07,0.202 -0.104,0.434 -0.104,0.694 z"
         fill="#4b78ac"
         id="path25" />
      <path
         d="m 98.538,50.136 h 0.706 v 0.581 h 0.017 c 0.116,-0.238 0.299,-0.411 0.548,-0.519 0.249,-0.108 0.523,-0.162 0.822,-0.162 0.332,0 0.622,0.061 0.868,0.183 0.246,0.122 0.451,0.287 0.615,0.494 0.163,0.208 0.287,0.447 0.37,0.718 0.083,0.271 0.125,0.56 0.125,0.864 0,0.304 -0.04,0.593 -0.121,0.864 -0.08,0.271 -0.202,0.508 -0.365,0.71 -0.164,0.202 -0.369,0.363 -0.615,0.481 -0.247,0.119 -0.533,0.179 -0.86,0.179 -0.111,0 -0.23,-0.011 -0.357,-0.033 -0.127,-0.022 -0.254,-0.06 -0.382,-0.112 -0.127,-0.052 -0.248,-0.122 -0.361,-0.208 -0.114,-0.086 -0.209,-0.192 -0.287,-0.32 h -0.017 v 2.218 h -0.706 v -5.939 z m 3.323,2.11 c 0,-0.2 -0.026,-0.395 -0.079,-0.586 -0.053,-0.191 -0.133,-0.361 -0.241,-0.511 -0.108,-0.15 -0.247,-0.269 -0.416,-0.357 -0.169,-0.089 -0.367,-0.133 -0.594,-0.133 -0.238,0 -0.44,0.047 -0.606,0.142 -0.166,0.095 -0.302,0.217 -0.407,0.37 -0.105,0.152 -0.181,0.325 -0.229,0.519 -0.047,0.194 -0.07,0.39 -0.07,0.59 0,0.21 0.025,0.414 0.075,0.61 0.05,0.197 0.129,0.37 0.237,0.519 0.108,0.15 0.248,0.27 0.419,0.362 0.171,0.091 0.379,0.137 0.623,0.137 0.238,0 0.44,-0.047 0.606,-0.141 0.166,-0.094 0.299,-0.219 0.398,-0.374 0.1,-0.155 0.172,-0.332 0.216,-0.531 0.044,-0.2 0.066,-0.404 0.066,-0.615 z"
         fill="#4b78ac"
         id="path26" />
      <path
         d="m 107.11,53.068 c -0.094,0.477 -0.302,0.839 -0.624,1.088 -0.322,0.249 -0.727,0.374 -1.215,0.374 -0.344,0 -0.643,-0.057 -0.895,-0.17 -0.253,-0.113 -0.465,-0.27 -0.637,-0.469 -0.172,-0.199 -0.301,-0.438 -0.387,-0.714 -0.086,-0.277 -0.135,-0.579 -0.146,-0.905 0,-0.321 0.05,-0.619 0.15,-0.893 0.1,-0.274 0.239,-0.511 0.419,-0.71 0.18,-0.199 0.393,-0.354 0.64,-0.465 0.246,-0.111 0.516,-0.167 0.81,-0.167 0.382,0 0.699,0.079 0.951,0.237 0.252,0.158 0.454,0.359 0.606,0.603 0.152,0.244 0.258,0.509 0.316,0.797 0.058,0.288 0.082,0.562 0.07,0.822 h -3.214 c -0.006,0.188 0.017,0.367 0.066,0.536 0.05,0.169 0.13,0.319 0.241,0.449 0.111,0.13 0.252,0.234 0.424,0.312 0.171,0.078 0.374,0.116 0.606,0.116 0.293,0 0.537,-0.069 0.731,-0.208 0.194,-0.138 0.321,-0.349 0.382,-0.631 h 0.706 z m -0.689,-1.196 c -0.011,-0.166 -0.048,-0.324 -0.112,-0.474 -0.064,-0.149 -0.15,-0.278 -0.258,-0.386 -0.108,-0.108 -0.237,-0.194 -0.386,-0.257 -0.149,-0.063 -0.31,-0.096 -0.482,-0.096 -0.183,0 -0.347,0.032 -0.494,0.096 -0.146,0.063 -0.273,0.151 -0.378,0.262 -0.105,0.111 -0.188,0.24 -0.249,0.386 -0.061,0.147 -0.097,0.303 -0.108,0.469 z"
         fill="#4b78ac"
         id="path27" />
      <path
         d="m 107.875,50.136 h 0.665 v 0.905 h 0.017 c 0.171,-0.349 0.382,-0.606 0.631,-0.772 0.249,-0.167 0.565,-0.244 0.947,-0.233 v 0.748 c -0.282,0 -0.523,0.039 -0.723,0.116 -0.2,0.077 -0.36,0.191 -0.482,0.34 -0.122,0.149 -0.21,0.333 -0.266,0.548 -0.056,0.216 -0.083,0.46 -0.083,0.731 v 1.911 h -0.706 z"
         fill="#4b78ac"
         id="path28" />
      <path
         d="m 111.097,53.076 c 0.006,0.161 0.042,0.293 0.108,0.399 0.066,0.105 0.153,0.189 0.262,0.253 0.108,0.064 0.229,0.11 0.365,0.137 0.136,0.028 0.275,0.042 0.419,0.042 0.111,0 0.227,-0.008 0.349,-0.025 0.122,-0.017 0.234,-0.047 0.336,-0.091 0.102,-0.044 0.187,-0.109 0.253,-0.195 0.066,-0.085 0.1,-0.195 0.1,-0.328 0,-0.138 -0.041,-0.25 -0.121,-0.336 -0.08,-0.085 -0.186,-0.156 -0.315,-0.212 -0.13,-0.055 -0.28,-0.101 -0.449,-0.137 -0.169,-0.036 -0.342,-0.073 -0.519,-0.112 -0.177,-0.039 -0.349,-0.086 -0.515,-0.141 -0.166,-0.055 -0.316,-0.127 -0.449,-0.216 -0.133,-0.089 -0.24,-0.202 -0.32,-0.341 -0.08,-0.138 -0.12,-0.31 -0.12,-0.515 0,-0.216 0.048,-0.401 0.145,-0.557 0.097,-0.155 0.222,-0.281 0.374,-0.378 0.152,-0.097 0.324,-0.169 0.515,-0.216 0.191,-0.047 0.38,-0.071 0.569,-0.071 0.238,0 0.461,0.021 0.668,0.062 0.208,0.042 0.391,0.114 0.548,0.216 0.158,0.103 0.284,0.241 0.378,0.416 0.094,0.175 0.15,0.392 0.167,0.652 h -0.706 c -0.011,-0.138 -0.049,-0.253 -0.112,-0.345 -0.064,-0.091 -0.141,-0.165 -0.232,-0.22 -0.092,-0.056 -0.194,-0.096 -0.308,-0.121 -0.114,-0.025 -0.229,-0.038 -0.345,-0.038 -0.105,0 -0.212,0.009 -0.32,0.025 -0.108,0.016 -0.207,0.046 -0.295,0.088 -0.088,0.042 -0.161,0.099 -0.216,0.171 -0.056,0.072 -0.083,0.162 -0.083,0.268 0,0.128 0.042,0.231 0.128,0.309 0.086,0.078 0.195,0.144 0.328,0.197 0.133,0.053 0.283,0.098 0.449,0.134 0.166,0.036 0.333,0.074 0.499,0.112 0.177,0.039 0.35,0.085 0.519,0.141 0.169,0.056 0.318,0.128 0.449,0.22 0.13,0.091 0.235,0.206 0.315,0.343 0.08,0.138 0.121,0.309 0.121,0.514 0,0.254 -0.054,0.468 -0.162,0.642 -0.108,0.174 -0.249,0.313 -0.424,0.418 -0.174,0.104 -0.371,0.179 -0.589,0.224 -0.219,0.044 -0.437,0.066 -0.652,0.066 -0.244,0 -0.472,-0.026 -0.685,-0.079 -0.213,-0.053 -0.403,-0.136 -0.569,-0.25 -0.166,-0.113 -0.299,-0.263 -0.398,-0.449 -0.1,-0.185 -0.155,-0.411 -0.167,-0.677 h 0.706 z"
         fill="#4b78ac"
         id="path29" />
    </g>
    <g
       id="g38"
       style="display:inline">
      <path
         d="m 122.463,36.856 c -0.377,-0.718 -1.556,-1.521 -2.592,-2.145 -0.655,-0.396 -3.306,-2.005 -3.796,-2.4 -0.45,-0.362 -1.13,-1.165 -1.326,-1.666 -0.29,-0.741 -0.152,-1.456 -0.015,-2.228 0.241,-1.369 1.96,-2.227 3.328,-1.909 1.709,0.397 2.272,1.679 2.671,3.189 0.058,0.218 0.155,0.906 0.313,1.004 0.423,0.262 1.043,0.08 1.086,-0.366 0.088,-0.904 -0.018,-1.89 -0.089,-2.797 -0.063,-0.773 -0.666,-1.154 -1.43,-1.437 -0.782,-0.293 -1.632,-0.539 -2.485,-0.539 -1.544,0 -3.222,0.418 -4.343,1.469 -1.217,1.141 -1.8,2.438 -1.867,4.067 -0.05,1.195 0.364,1.914 1.507,2.986 0.691,0.646 2.297,1.616 3.091,2.062 0.794,0.445 2.798,1.449 3.396,2.063 0.916,0.943 0.609,1.922 0.444,2.744 -0.126,0.618 -0.428,1.275 -0.906,1.665 -1.144,0.936 -2.876,1.203 -4.281,0.534 -1.599,-0.761 -2.468,-2.225 -2.468,-3.923 0,-0.337 0.012,-0.734 -0.404,-0.734 -0.61,0 -0.621,0.243 -0.621,0.784 0,0.986 0.061,1.967 0.061,2.953 0,1.581 2.292,1.931 3.524,2.12 1.502,0.231 3.423,0.04 4.733,-0.664 1.109,-0.594 1.935,-1.512 2.471,-2.595 0.22,-0.445 0.527,-1.239 0.481,-2.132 -0.046,-0.893 -0.105,-1.391 -0.481,-2.106 z"
         fill="#28295e"
         id="path30" />
      <path
         d="m 63.378,36.933 v 0 c 1.025,0.544 2.547,0.624 3.218,0.624 0.395,0 1.436,-0.192 1.788,-0.373 1.259,-0.649 1.903,-2.145 2.23,-3.435 0.175,-0.691 0.236,-1.436 0.191,-2.147 -0.03,-0.485 -0.11,-1.2 -0.205,-1.68 -0.092,-0.468 -0.298,-0.968 -0.561,-1.45 -0.276,-0.503 -0.55,-0.775 -0.943,-1.157 -0.949,-0.923 -2.542,-0.927 -3.79,-0.927 -1.34,0 -2.68,0.057 -3.987,0.057 -0.882,0 -1.747,-0.175 -2.644,-0.065 -0.345,0.041 -0.44,0.646 -0.015,0.646 0.405,0 1.047,0.126 1.357,0.405 0.535,0.479 0.637,1.461 0.637,2.103 v 11.122 c 0,0.538 -0.067,1.421 -0.313,1.903 -0.358,0.705 -1.03,0.87 -1.828,0.87 -0.374,0 -0.503,0.65 -0.205,0.867 0.248,0.182 1.128,-0.098 1.414,-0.115 0.924,-0.059 1.853,-0.059 2.781,-0.059 0.453,0 0.9,0.005 1.349,0.059 0.405,0.049 0.904,0.217 1.293,0.115 0.316,-0.081 0.446,-0.727 0.265,-0.868 -0.271,-0.213 -1.02,-0.128 -1.395,-0.219 -0.816,-0.202 -0.638,-1.605 -0.638,-2.22 v -4.054 z m -0.119,-9.389 c 1.352,-0.719 3.092,-0.298 3.892,0.986 0.776,1.246 0.706,3.018 0.53,4.405 -0.154,1.207 -0.633,3.022 -2.064,3.362 -0.75,0.177 -1.987,-0.031 -2.239,-0.783 -0.172,-0.512 -0.118,-1.625 -0.118,-2.216 v -5.753 0 z"
         fill="#28295e"
         id="path31" />
      <path
         d="m 82.603,42.053 c -0.476,-0.147 -0.586,0.105 -0.934,0.357 -1.872,1.347 -1.473,-1.876 -1.473,-2.742 v -2.235 c 0,-0.735 -0.042,-2.947 -0.057,-3.182 -0.017,-0.289 -0.047,-0.592 -0.17,-0.877 -0.186,-0.442 -0.854,-0.963 -1.247,-1.095 -0.638,-0.215 -1.293,-0.165 -1.983,-0.165 -1.334,0 -2.675,0.625 -3.625,1.533 -0.482,0.461 -2.579,2.74 -1.163,3.202 1.479,0.485 1.879,-1.192 2.381,-2.161 0.491,-0.95 1.466,-2.037 2.691,-1.588 0.959,0.351 0.804,1.665 0.804,2.488 0,0.194 -0.02,0.814 -0.038,1.596 0,0 -3.009,0.774 -4.157,1.452 -1.146,0.678 -1.311,1.04 -1.595,1.475 -0.75,1.145 -0.879,2.675 0.169,3.722 0.624,0.622 1.969,0.798 2.779,0.411 1.079,-0.515 1.845,-1.05 2.717,-1.886 -0.03,0.632 0.632,1.4 1.134,1.748 0.564,0.394 1.354,0.444 1.987,0.139 0.645,-0.314 1.217,-0.781 1.64,-1.343 0.128,-0.168 0.545,-0.723 0.141,-0.848 z m -4.844,-3.367 v 1.808 c -0.393,0.948 -1.837,3.269 -3.129,2.011 -0.973,-0.945 -0.34,-3.355 0.598,-3.718 0.937,-0.363 2.544,-0.93 2.544,-0.93 -0.008,0.323 -0.013,0.828 -0.013,0.828 z"
         fill="#28295e"
         id="path32" />
      <path
         d="m 87.393,37.609 v -11.633 0 c 0.15,-0.986 -1.247,0.08 -1.475,0.223 -0.688,0.433 -1.477,0.504 -2.238,0.751 -0.27,0.089 -0.408,0.66 -0.197,0.864 0.268,0.264 0.86,0.097 1.048,0.558 0.18,0.443 0.142,1.327 0.142,1.94 v 10.132 0 c 0,0.818 -0.02,1.827 -0.129,2.453 -0.082,0.478 -0.63,0.497 -1.047,0.546 -0.466,0.057 -0.468,0.15 -0.468,0.593 0,0.478 1.349,0.162 2.141,0.094 0.883,-0.076 1.695,-0.005 2.573,0.098 0.268,0.031 1.409,0.19 1.405,-0.19 -0.003,-0.323 0.065,-0.594 -0.404,-0.617 -0.469,-0.023 -1.237,0.064 -1.351,-0.69 -0.093,-0.619 0,-1.597 0,-2.361 v -2.76 z"
         fill="#28295e"
         id="path33" />
      <path
         d="M 108.848,37.609 V 35.74 c 0,-0.67 -0.304,-1.22 -0.566,-1.592 -0.679,-0.965 -2.104,-2.251 -3.683,-1.921 -1.325,0.276 -2.626,1.374 -3.287,2.589 -0.722,-1.425 -2.209,-2.698 -3.853,-2.589 -1.437,0.096 -2.666,1.174 -3.415,2.255 v -2.255 c 0,-0.445 -0.944,0.526 -1.004,0.584 -0.398,0.39 -0.91,0.837 -1.413,1.085 -0.298,0.147 -1.784,0.626 -1.42,1.088 0.211,0.268 1.114,-0.034 1.218,0.474 0.106,0.506 0.141,2.152 0.141,2.152 l 0.008,1.275 v 1.56 0 c 0,0.818 -0.02,1.827 -0.128,2.453 -0.082,0.478 -0.631,0.497 -1.047,0.546 -0.467,0.057 -0.468,0.15 -0.468,0.593 0,0.478 1.747,0.049 2.096,0.025 0.885,-0.06 1.786,0.012 2.663,0.114 0.372,0.043 1.782,0.346 1.358,-0.503 -0.306,-0.617 -1.729,0.036 -1.877,-0.943 -0.091,-0.619 -0.097,-1.597 -0.097,-2.361 v -4.661 0 c 0.727,-1.31 2.429,-2.302 3.835,-1.27 0.44,0.323 0.815,0.866 0.909,1.548 0.04,0.295 0.112,0.587 0.112,0.891 v 3.567 0 c 0,0.818 -0.067,1.827 -0.172,2.453 -0.08,0.478 -0.616,0.497 -1.024,0.546 -0.454,0.057 -0.456,0.15 -0.456,0.593 0,0.478 1.704,0.049 2.047,0.025 0.863,-0.06 1.744,0.012 2.6,0.114 0.364,0.043 1.74,0.346 1.328,-0.503 -0.299,-0.617 -1.502,0.036 -1.646,-0.943 -0.09,-0.619 -0.069,-1.597 -0.069,-2.361 v -1.485 l -0.003,-1.275 v -0.926 c 0,-0.471 -0.023,-0.742 0.228,-1.143 0.225,-0.36 0.493,-0.651 0.792,-0.946 0.766,-0.753 2.16,-0.779 2.933,-0.014 0.577,0.571 0.807,1.383 0.807,2.176 v 3.687 0 c 0,0.818 0.101,1.827 0,2.453 -0.08,0.478 -0.789,0.497 -1.189,0.546 -0.443,0.057 -0.444,0.15 -0.444,0.593 0,0.478 1.665,0.049 2,0.025 0.843,-0.06 1.704,0.012 2.541,0.114 0.354,0.043 1.699,0.346 1.297,-0.503 -0.292,-0.617 -1.468,0.036 -1.609,-0.943 -0.087,-0.619 -0.067,-1.597 -0.067,-2.361 v -1.485 l 0.021,-1.275 z"
         fill="#28295e"
         id="path34" />
      <path
         d="m 132.001,37.132 v 0 c -0.011,0.03 0,0 0,0 z"
         fill="#28295e"
         id="path35" />
      <path
         d="m 130.85,32.14 c -2.809,-0.375 -5.199,1.364 -6.178,3.759 -0.143,0.354 -0.242,0.601 -0.323,0.963 -0.067,0.296 -0.138,0.602 -0.138,0.602 v 1.229 c 0.125,2.768 2.368,5.566 5.393,5.747 1.393,0.085 3.153,-0.529 4.236,-1.385 0.541,-0.426 0.979,-0.858 1.205,-1.461 0.188,-0.504 -0.041,-1.022 -0.513,-0.348 -0.644,0.924 -1.928,1.294 -3.013,1.42 -1.596,0.185 -2.609,-0.543 -3.106,-1.125 -0.497,-0.582 -1.57,-1.652 -1.437,-4.076 h 8.121 c 0.006,-0.02 0.021,-0.06 0.058,-0.168 0.625,-2.646 -1.719,-4.811 -4.306,-5.155 z m 0.105,4.296 h -3.902 c 0.36,-1.373 0.931,-2.438 2.182,-3.223 1.187,-0.744 3.317,0.237 3.2,1.666 0.133,0.844 -0.623,1.557 -1.481,1.557 z"
         fill="#28295e"
         id="path36" />
      <path
         d="m 155.249,37.156 c -3.311,-1.4 -3.152,-2.562 -2.489,-3.394 0.644,-0.807 2.355,-0.809 3.358,-0.286 1.02,0.532 0.803,1.835 1.308,2.183 0.521,0.359 0.668,-0.361 0.702,-0.71 0.059,-0.598 0.143,-1.75 -0.324,-2.154 -0.515,-0.446 -3.261,-1.349 -5.68,-0.108 -0.994,0.51 -1.804,1.766 -1.894,2.592 -0.059,0.536 -0.184,1.095 0.485,1.914 0.67,0.818 3.047,1.42 4.195,2.128 1.148,0.708 2.127,1.51 1.506,2.875 -0.219,0.479 -0.339,0.601 -0.835,0.911 -0.588,0.367 -1.541,0.414 -2.179,0.377 -1.391,-0.078 -2.042,-1.766 -2.261,-2.791 -0.046,-0.223 -0.132,-0.702 -0.367,-0.836 -0.402,-0.225 -0.552,0.155 -0.588,0.439 -0.104,0.848 0,1.764 0,2.618 0,1.219 2.065,1.583 3.152,1.583 1.584,0 3.009,-0.293 4.13,-1.353 1.092,-1.025 1.344,-1.983 1.119,-3.196 -0.225,-1.212 -2.126,-2.281 -3.338,-2.794 z"
         fill="#28295e"
         id="path37" />
      <path
         d="m 148.046,37.501 c 0,-0.743 -0.079,-2.072 -0.298,-2.66 -0.19,-0.506 -0.372,-0.845 -0.652,-1.225 -0.688,-0.936 -2.005,-1.504 -3.087,-1.504 -0.755,0 -1.314,0.206 -1.984,0.529 -0.383,0.186 -0.775,0.456 -1.077,0.752 -0.326,0.319 -0.861,0.725 -1.02,1.17 v -2.187 c 0,-0.592 -0.573,-0.099 -0.793,0.126 -0.378,0.39 -0.783,0.874 -1.263,1.156 -0.521,0.308 -1.27,0.498 -1.696,0.915 -0.475,0.467 0.831,0.682 1.02,0.868 0.36,0.353 0.503,0.727 0.52,1.198 0.004,0.171 -0.002,0.836 -0.002,0.836 l 0.002,1.281 v 2.283 c 0,0.167 -0.004,1.269 -0.107,1.895 -0.077,0.478 -0.876,0.482 -1.269,0.532 -0.439,0.057 -0.441,0.15 -0.441,0.593 0,0.478 1.271,0.162 2.017,0.094 0.832,-0.076 1.597,-0.005 2.424,0.098 0.252,0.031 1.327,0.19 1.324,-0.19 -0.003,-0.323 0.061,-0.594 -0.381,-0.617 -0.442,-0.023 -1.118,0.042 -1.226,-0.712 -0.088,-0.619 -0.072,-2.094 -0.072,-2.374 0,-0.41 0.008,-1.616 0.008,-1.616 l -0.008,-1.282 v -0.557 c 0,-0.965 0.184,-1.375 0.749,-2.115 0.427,-0.562 1.475,-0.812 2.141,-0.837 1.572,-0.059 2.431,0.755 2.677,2.203 0.035,0.209 0.098,1.347 0.098,1.347 l 0.017,1.24 v 2.283 c 0,0 0,1.24 -0.102,1.866 -0.077,0.478 -0.789,0.527 -1.182,0.576 -0.439,0.057 -0.441,0.15 -0.441,0.593 0,0.478 1.271,0.162 2.017,0.094 0.832,-0.076 1.597,-0.005 2.424,0.098 0.252,0.031 1.327,0.19 1.324,-0.19 -0.003,-0.323 0.061,-0.594 -0.381,-0.617 -0.442,-0.023 -1.118,0.042 -1.226,-0.712 -0.088,-0.619 -0.072,-2.094 -0.072,-2.374 0,0 0.017,-2.113 0.017,-2.856 z"
         fill="#28295e"
         id="path38" />
    </g>
    <text
       xml:space="preserve"
       style="font-style:normal;font-variant:normal;font-weight:normal;font-stretch:normal;font-size:8.22238px;font-family:Helvetica;-inkscape-font-specification:Helvetica;text-align:start;writing-mode:lr-tb;direction:ltr;text-anchor:start;display:none;fill:#4b78ac;fill-opacity:1;stroke-width:1.0278"
       x="31.616989"
       y="33.838421"
       id="text38"
       transform="matrix(1.0050863,0,0,0.99493944,25.93,20.731)"
       inkscape:label="For .NET MAUI"><tspan
         sodipodi:role="line"
         id="tspan38"
         x="0"
         y="0"
         style="fill:#4b78ac;fill-opacity:1;stroke-width:1.0278">For .NET MAUI</tspan></text>
    <text
       xml:space="preserve"
       style="font-style:normal;font-variant:normal;font-weight:normal;font-stretch:normal;font-size:8.22238px;font-family:Helvetica;-inkscape-font-specification:Helvetica;text-align:start;writing-mode:lr-tb;direction:ltr;text-anchor:start;display:none;fill:#4b78ac;fill-opacity:1;stroke-width:1.0278"
       x="31.616989"
       y="33.838421"
       id="text38-9"
       transform="matrix(1.0050863,0,0,0.99493944,25.93,20.731)"
       inkscape:label="For Python"><tspan
         sodipodi:role="line"
         id="tspan38-4"
         x="31.616989"
         y="33.838421"
         style="fill:#4b78ac;fill-opacity:1;stroke-width:1.0278">For Python</tspan></text>
    <path
       d="m 32.319585,27.94063 h 4.091116 v 0.72267 h -3.292164 v 1.790616 h 2.894695 v 0.702596 h -2.894695 v 2.681909 h -0.798952 z m 6.556224,5.43207 q 0.718655,0 0.983634,-0.542002 0.268994,-0.546018 0.268994,-1.21248 0,-0.602225 -0.192712,-0.97962 -0.305127,-0.594195 -1.051886,-0.594195 -0.662448,0 -0.963561,0.505869 -0.301112,0.505869 -0.301112,1.220509 0,0.686537 0.301112,1.144228 0.301113,0.457691 0.955531,0.457691 z m 0.0281,-3.958626 q 0.83107,0 1.405192,0.554047 0.574121,0.554047 0.574121,1.630023 0,1.039842 -0.505869,1.718348 -0.505869,0.678507 -1.5698,0.678507 -0.887279,0 -1.409207,-0.59821 -0.521928,-0.602225 -0.521928,-1.613963 0,-1.084005 0.550032,-1.726379 0.550032,-0.642373 1.477459,-0.642373 z m -0.02409,0.02007 z m 2.882651,0.104386 h 0.686536 v 0.742744 q 0.08431,-0.216801 0.413528,-0.525943 0.329216,-0.313157 0.758804,-0.313157 0.02007,0 0.06825,0.004 0.04818,0.004 0.164608,0.01606 v 0.762818 q -0.06424,-0.01204 -0.120445,-0.01606 -0.05219,-0.004 -0.11643,-0.004 -0.546018,0 -0.8391,0.353306 -0.293083,0.34929 -0.293083,0.806981 v 2.473138 h -0.72267 z m 7.363204,3.617365 q 0.405498,0 0.666462,-0.08431 0.465721,-0.156579 0.762819,-0.602225 0.236875,-0.357321 0.341261,-0.915383 0.06022,-0.333231 0.06022,-0.618284 0,-1.09605 -0.437617,-1.70229 -0.433602,-0.606239 -1.401177,-0.606239 h -1.417236 v 4.528732 z M 46.897446,27.94063 h 2.388826 q 1.216495,0 1.886972,0.863189 0.598211,0.778878 0.598211,1.995373 0,0.939471 -0.353306,1.698274 -0.622299,1.340955 -2.139906,1.340955 h -2.380797 z m 7.596067,1.501548 q 0.457691,0 0.887279,0.216801 0.429587,0.212786 0.654417,0.554047 0.216801,0.325201 0.289068,0.758804 0.06424,0.297097 0.06424,0.9475 H 53.23687 q 0.02007,0.654418 0.309142,1.051887 0.289069,0.393453 0.895308,0.393453 0.566092,0 0.903338,-0.373379 0.192712,-0.216801 0.273009,-0.501854 h 0.710625 q -0.0281,0.236875 -0.188697,0.529958 -0.156578,0.289068 -0.353305,0.47375 -0.329217,0.321187 -0.815012,0.433602 -0.260964,0.06424 -0.59018,0.06424 -0.802967,0 -1.361029,-0.582151 -0.558062,-0.586166 -0.558062,-1.638053 0,-1.035827 0.562077,-1.682215 0.562077,-0.646388 1.469429,-0.646388 z m 1.152258,1.903031 q -0.04416,-0.469735 -0.204757,-0.750774 -0.297098,-0.521928 -0.991664,-0.521928 -0.497839,0 -0.835085,0.361335 -0.337246,0.35732 -0.357321,0.911367 z m -1.22051,-1.911061 z m 3.203837,0.104386 1.148242,3.500935 1.200436,-3.500935 h 0.790922 l -1.621993,4.299887 h -0.770848 l -1.585859,-4.299887 z m 5.548499,-0.09636 q 0.457691,0 0.887278,0.216801 0.429588,0.212786 0.654418,0.554047 0.216801,0.325201 0.289068,0.758804 0.06424,0.297097 0.06424,0.9475 h -3.151645 q 0.02007,0.654418 0.309142,1.051887 0.289068,0.393453 0.895308,0.393453 0.566092,0 0.903338,-0.373379 0.192712,-0.216801 0.273009,-0.501854 h 0.710625 q -0.0281,0.236875 -0.188697,0.529958 -0.156578,0.289068 -0.353305,0.47375 -0.329217,0.321187 -0.815012,0.433602 -0.260964,0.06424 -0.59018,0.06424 -0.802967,0 -1.361029,-0.582151 -0.558062,-0.586166 -0.558062,-1.638053 0,-1.035827 0.562077,-1.682215 0.562077,-0.646388 1.469429,-0.646388 z m 1.152258,1.903031 q -0.04416,-0.469735 -0.204757,-0.750774 -0.297098,-0.521928 -0.991664,-0.521928 -0.497839,0 -0.835085,0.361335 -0.337246,0.35732 -0.357321,0.911367 z m -1.22051,-1.911061 z m 2.870607,-1.493518 h 0.722671 v 5.897791 h -0.722671 z m 3.512979,5.43207 q 0.718655,0 0.983634,-0.542002 0.268994,-0.546018 0.268994,-1.21248 0,-0.602225 -0.192712,-0.97962 -0.305128,-0.594195 -1.051887,-0.594195 -0.662447,0 -0.96356,0.505869 -0.301112,0.505869 -0.301112,1.220509 0,0.686537 0.301112,1.144228 0.301113,0.457691 0.955531,0.457691 z m 0.0281,-3.958626 q 0.831071,0 1.405192,0.554047 0.574121,0.554047 0.574121,1.630023 0,1.039842 -0.505869,1.718348 -0.505869,0.678507 -1.5698,0.678507 -0.887278,0 -1.409206,-0.59821 -0.521929,-0.602225 -0.521929,-1.613963 0,-1.084005 0.550033,-1.726379 0.550032,-0.642373 1.477458,-0.642373 z m -0.02409,0.02007 z m 4.677281,3.918478 q 0.505869,0 0.8391,-0.421558 0.337246,-0.425572 0.337246,-1.268687 0,-0.513899 -0.148548,-0.883264 -0.281039,-0.710625 -1.027798,-0.710625 -0.750774,0 -1.027797,0.750774 -0.148549,0.401483 -0.148549,1.019768 0,0.497839 0.148549,0.84713 0.281038,0.666462 1.027797,0.666462 z m -1.870912,-3.794018 h 0.702595 v 0.570106 q 0.216801,-0.293082 0.473751,-0.453676 0.36535,-0.24089 0.859174,-0.24089 0.7307,0 1.240584,0.562077 0.509884,0.558062 0.509884,1.597904 0,1.405192 -0.734715,2.007417 -0.46572,0.381409 -1.084005,0.381409 -0.485795,0 -0.815011,-0.212786 -0.192712,-0.120445 -0.429587,-0.413528 v 2.196114 h -0.72267 z m 6.419718,-0.11643 q 0.457691,0 0.887278,0.216801 0.429588,0.212786 0.654418,0.554047 0.216801,0.325201 0.289068,0.758804 0.06424,0.297097 0.06424,0.9475 h -3.151645 q 0.02007,0.654418 0.309142,1.051887 0.289068,0.393453 0.895308,0.393453 0.566092,0 0.903338,-0.373379 0.192712,-0.216801 0.273009,-0.501854 h 0.710625 q -0.0281,0.236875 -0.188697,0.529958 -0.156579,0.289068 -0.353305,0.47375 -0.329217,0.321187 -0.815012,0.433602 -0.260964,0.06424 -0.59018,0.06424 -0.802967,0 -1.361029,-0.582151 -0.558062,-0.586166 -0.558062,-1.638053 0,-1.035827 0.562077,-1.682215 0.562077,-0.646388 1.469429,-0.646388 z m 1.152257,1.903031 q -0.04416,-0.469735 -0.204756,-0.750774 -0.297098,-0.521928 -0.991664,-0.521928 -0.497839,0 -0.835085,0.361335 -0.337247,0.35732 -0.357321,0.911367 z M 78.65478,29.434148 Z m 2.870609,0.104386 h 0.686537 v 0.742744 q 0.08431,-0.216801 0.413528,-0.525943 0.329216,-0.313157 0.758803,-0.313157 0.02007,0 0.06825,0.004 0.04818,0.004 0.164608,0.01606 v 0.762818 q -0.06424,-0.01204 -0.120445,-0.01606 -0.05219,-0.004 -0.11643,-0.004 -0.546018,0 -0.839101,0.353306 -0.293083,0.34929 -0.293083,0.806981 v 2.473138 h -0.72267 z m 3.147627,2.950903 q 0.03212,0.361335 0.180667,0.554047 0.273009,0.34929 0.947501,0.34929 0.401483,0 0.706611,-0.172638 0.305127,-0.176652 0.305127,-0.542002 0,-0.277024 -0.244905,-0.421558 -0.156578,-0.08833 -0.618284,-0.204756 l -0.574121,-0.144534 q -0.550033,-0.136505 -0.810997,-0.305128 -0.46572,-0.293082 -0.46572,-0.810996 0,-0.610255 0.437616,-0.987649 0.441632,-0.377395 1.184376,-0.377395 0.97159,0 1.401177,0.570107 0.268994,0.361335 0.260965,0.778878 h -0.682522 q -0.02007,-0.244905 -0.172638,-0.445647 -0.24892,-0.285053 -0.863189,-0.285053 -0.409513,0 -0.6223,0.156578 -0.208771,0.156579 -0.208771,0.413528 0,0.281039 0.277024,0.449662 0.160593,0.100371 0.47375,0.176652 l 0.477765,0.116431 q 0.778878,0.188697 1.043857,0.365349 0.421558,0.277024 0.421558,0.871219 0,0.574122 -0.437617,0.991664 -0.433602,0.417543 -1.324895,0.417543 -0.959546,0 -1.361029,-0.433602 -0.397469,-0.437617 -0.425573,-1.07999 z m 1.067946,-3.055289 z"
       id="text38-9-8"
       style="font-size:8.22238px;font-family:Helvetica;-inkscape-font-specification:Helvetica;fill:#4b78ac;stroke-width:1.0278"
       inkscape:label="For Developers"
       transform="matrix(1.0050863,0,0,0.99493944,25.93,20.731)"
       aria-label="For Developers" />
    <text
       xml:space="preserve"
       style="font-style:normal;font-variant:normal;font-weight:normal;font-stretch:normal;font-size:8.22238px;font-family:Helvetica;-inkscape-font-specification:Helvetica;text-align:start;writing-mode:lr-tb;direction:ltr;text-anchor:start;display:none;fill:#4b78ac;fill-opacity:1;stroke-width:1.0278"
       x="31.616989"
       y="33.858494"
       id="text38-9-8-5"
       transform="matrix(1.0050863,0,0,0.99493944,25.93,20.731)"
       inkscape:label="For MatLab"><tspan
         sodipodi:role="line"
         id="tspan38-4-2-5"
         x="31.616989"
         y="33.858494"
         style="fill:#4b78ac;fill-opacity:1;stroke-width:1.0278">For Matlab</tspan></text>
    <text
       xml:space="preserve"
       style="font-style:normal;font-variant:normal;font-weight:normal;font-stretch:normal;font-size:8.22238px;font-family:Helvetica;-inkscape-font-specification:Helvetica;text-align:start;writing-mode:lr-tb;direction:ltr;text-anchor:start;display:none;fill:#4b78ac;fill-opacity:1;stroke-width:1.0278"
       x="31.616989"
       y="33.858494"
       id="text38-9-8-5-7"
       transform="matrix(1.0050863,0,0,0.99493944,25.93,20.731)"
       inkscape:label="For LabView"><tspan
         sodipodi:role="line"
         id="tspan38-4-2-5-1"
         x="31.616989"
         y="33.858494"
         style="fill:#4b78ac;fill-opacity:1;stroke-width:1.0278">For LabView</tspan></text>
  </g>
</svg>
