<?xml version="1.0" encoding="UTF-8"?>
<!-- Created with Inkscape (http://www.inkscape.org/) -->
<svg width="315.29" height="61.453" version="1.1" viewBox="0 0 315.29 61.453" xmlns="http://www.w3.org/2000/svg">
 <g fill="#fff">
  <path transform="matrix(.13333 0 0 -.13333 0 61.453)" d="m245.23 460.86v-66.504-65.742c42.278-6.609 75.634-39.831 82.427-82.046h65.786 66.211c-7.797 114.92-99.592 206.7-214.42 214.29z"/>
  <path transform="matrix(.13333 0 0 -.13333 0 61.453)" d="m0 214.86c3.0195-44.527 18.693-85.561 43.389-119.6 28.277-38.973 68.476-68.585 115.2-83.804 22.457-7.3164 46.356-11.455 71.25-11.455 24.899 0 48.789 4.1387 71.25 11.455 46.719 15.219 86.907 44.846 115.18 83.818l-53.54 38.892-52.749 38.335c-12.156-16.762-29.415-29.518-49.512-36.064-9.656-3.141-19.915-4.9365-30.63-4.9365-10.707 0-20.974 1.7915-30.63 4.9365l-20.142-61.978 20.127 61.978c-20.097 6.542-37.336 19.306-49.497 36.064-8.929 12.309-15.175 26.695-17.695 42.363h-65.771-66.226zm309.98-42.363 52.749-38.32 53.54-38.906c24.693 34.039 40.37 75.065 43.389 119.59h-66.211-65.786c-2.519-15.664-8.7517-30.054-17.681-42.363z"/>
  <path transform="matrix(.13333 0 0 -.13333 0 61.453)" d="m214.42 460.86c-114.83-7.597-206.63-99.37-214.42-214.29h66.226 65.771c6.797 42.215 40.15 75.437 82.427 82.046v65.742 66.504z"/>
  <path transform="matrix(.13333 0 0 -.13333 0 61.453)" d="m362.73 134.17-52.761 38.332c4e-3 0 4e-3 4e-3 4e-3 4e-3l52.761-38.332c-4e-3 0-4e-3 0-4e-3 -4e-3"/>
  <path transform="matrix(.13333 0 0 -.13333 0 61.453)" d="m390.51 265.46c0 0.012-4e-3 0.02-4e-3 0.031 0-0.011 4e-3 -0.019 4e-3 -0.031m-0.016 0.082c-0.043 0.203-0.09 0.406-0.133 0.609 0.043-0.203 0.09-0.406 0.133-0.609m-0.148 0.68c-0.028 0.125-0.055 0.25-0.082 0.371 0.027-0.121 0.054-0.246 0.082-0.371m-0.082 0.375c-3.008 13.511-7.68 26.39-13.786 38.422 6.106-12.032 10.778-24.911 13.786-38.422m-13.852 38.554c-0.012 0.02-0.023 0.043-0.035 0.067 0.012-0.024 0.023-0.047 0.035-0.067m-1.035 2.004-0.012 0.012 0.012-0.012"/>
  <path transform="matrix(.13333 0 0 -.13333 0 61.453)" d="m363.61 135.4c16.309 22.855 27.004 49.992 29.829 79.472-2.825-29.48-13.52-56.617-29.829-79.472"/>
  <path transform="matrix(.13333 0 0 -.13333 0 61.453)" d="m96.934 134.16v0 0"/>
  <path transform="matrix(.13333 0 0 -.13333 0 61.453)" d="m177.89 74.848c-32.828 10.941-61.012 31.89-80.957 59.316 19.945-27.422 48.132-48.379 80.957-59.316"/>
  <path transform="matrix(.13333 0 0 -.13333 0 61.453)" d="m229.83 66.309c17.746 0 34.77 2.9531 50.777 8.1562-16.007-5.2031-33.031-8.1562-50.777-8.1562m-4.691 0.0703c-0.094 0-0.188 0.0039-0.278 0.0078 0.09-0.0039 0.184-0.0078 0.278-0.0078m-0.535 0.0156c-15.864 0.5196-31.114 3.3789-45.539 8.0664 14.425-4.6875 29.675-7.5468 45.539-8.0664"/>
  <path transform="matrix(.13333 0 0 -.13333 0 61.453)" d="m362.73 134.18h-4e-3"/>
  <path transform="matrix(.13333 0 0 -.13333 0 61.453)" d="m285.84 76.262c31.09 11.281 57.777 31.621 76.894 57.91v4e-3h4e-3c-4e-3 0-4e-3 -4e-3 -4e-3 -4e-3 -19.117-26.289-45.804-46.629-76.894-57.91"/>
  <path transform="matrix(.13333 0 0 -.13333 0 61.453)" d="m362.73 134.17v4e-3h4e-3c-4e-3 0-4e-3 -4e-3 -4e-3 -4e-3"/>
  <path transform="matrix(.13333 0 0 -.13333 0 61.453)" d="m416.27 95.273-53.536 38.899s0 4e-3 4e-3 4e-3h-4e-3l53.54-38.895c0-4e-3 0-4e-3 -4e-3 -0.0079"/>
  <path transform="matrix(.13333 0 0 -.13333 0 61.453)" d="m362.73 134.17v4e-3h4e-3c-4e-3 0-4e-3 -4e-3 -4e-3 -4e-3"/>
  <path transform="matrix(.13333 0 0 -.13333 0 61.453)" d="m630.97 365.82c24.582 13.086 56.234 5.434 70.781-17.922 14.109-22.668 12.84-54.918 9.637-80.125-2.797-21.941-11.512-54.972-37.543-61.136-13.649-3.227-36.153 0.566-40.731 14.25-3.117 9.297-2.144 29.539-2.144 40.3v104.63zm2.156-170.77c18.633-9.883 46.328-11.34 58.535-11.34 7.188 0 26.109 3.488 32.516 6.769 22.906 11.817 34.625 39.02 40.55 62.489 3.18 12.57 4.301 26.121 3.477 39.058-0.559 8.813-1.996 21.817-3.727 30.543-1.679 8.516-5.414 17.629-10.195 26.387-5.019 9.141-10 14.105-17.156 21.062-17.266 16.778-46.227 16.856-68.934 16.856-24.363 0-48.734-1.043-72.511-1.043-16.039 0-31.774 3.203-48.086 1.199-6.278-0.742-8.004-11.746-0.266-11.746 7.375 0 19.027-2.305 24.68-7.383 9.718-8.703 11.582-26.558 11.582-38.226v-202.3c0-9.777-1.227-25.832-5.699-34.61-6.512-12.812-18.731-15.812-33.247-15.812-6.812 0-9.168-11.816-3.738-15.781 4.504-3.3086 20.512 1.7773 25.731 2.1015 16.808 1.0821 33.695 1.0821 50.582 1.0821 8.226 0 16.367-0.1055 24.539-1.0821 7.375-0.8984 16.441-3.9453 23.523-2.1015 5.738 1.4765 8.117 13.215 4.817 15.801-4.926 3.8867-18.555 2.3359-25.368 3.9765-14.832 3.6524-11.605 29.18-11.605 40.371v73.731"/>
  <path transform="matrix(.13333 0 0 -.13333 0 61.453)" d="m894.71 163.18v-32.891c-7.152-17.246-33.414-59.465-56.898-36.574-17.7 17.187-6.188 61.035 10.863 67.617 17.035 6.602 46.273 16.906 46.273 16.906-0.14-5.89-0.238-15.058-0.238-15.058zm88.109-61.242c-8.668 2.675-10.66-1.903-16.992-6.4927-34.043-24.512-26.801 34.121-26.801 49.864v17.871 22.793c0 13.359-0.761 53.59-1.035 57.867-0.312 5.262-0.859 10.785-3.09 15.969-3.394 8.023-15.539 17.5-22.675 19.918-11.606 3.91-23.52 2.992-36.071 2.992-24.261 0-48.652-11.36-65.941-27.891-8.762-8.375-46.914-49.828-21.148-58.25 26.902-8.808 34.167 21.684 43.3 39.332 8.93 17.278 26.66 37.035 48.934 28.879 17.445-6.379 14.621-30.285 14.621-45.258 0-3.523-0.367-14.808-0.684-29.047 0 0-54.738-14.054-75.601-26.398-20.852-12.352-23.836-18.914-29.016-26.824-13.633-20.821-15.984-48.645 3.074-67.688 11.34-11.316 35.817-14.531 50.547-7.4883 19.621 9.3829 33.559 19.109 49.434 34.324-0.555-11.512 11.492-25.477 20.613-31.805 10.254-7.1407 24.629-8.0664 36.129-2.5117 11.738 5.7226 22.141 14.219 29.84 24.426 2.324 3.0664 9.906 13.145 2.562 15.418"/>
  <path transform="matrix(.13333 0 0 -.13333 0 61.453)" d="m1069.9 182.76v211.59c2.72 17.925-22.68-1.461-26.83-4.055-12.52-7.879-26.86-9.176-40.69-13.66-4.93-1.617-7.418-11.989-3.601-15.719 4.881-4.781 15.651-1.746 19.061-10.137 3.27-8.062 2.58-24.136 2.58-35.289v-114.13-18.605-23.192-28.359c0-14.875-0.36-33.234-2.34-44.629-1.48-8.6914-11.45-9.0156-19.044-9.9218-8.472-1.0352-8.503-2.7266-8.503-10.793 0-8.6992 31.767-0.9063 38.137-0.457 16.09 1.082 32.48-0.2149 48.44-2.0821 6.77-0.7812 32.4-6.2969 24.71 9.1406-5.57 11.223-29.23-0.6523-31.92 17.168-1.71 11.25 0 29.043 0 42.922v27.011 23.192"/>
  <path transform="matrix(.13333 0 0 -.13333 0 61.453)" d="m1460.2 182.76v10.148 23.864c0 12.183-5.52 22.195-10.28 28.949-12.35 17.562-38.26 40.945-66.99 34.945-24.11-5.039-47.76-24.996-59.78-47.098-13.13 25.922-40.18 49.075-70.09 47.098-26.14-1.742-48.49-21.355-62.1-41.016v41.016c0 8.082-17.17-9.566-18.28-10.629-7.24-7.094-16.54-15.219-25.68-19.719-5.42-2.675-32.45-11.402-25.84-19.796 3.83-4.883 20.27 0.601 22.16-8.614 1.92-9.218 2.56-39.148 2.56-39.148l0.16-23.192v-28.359c0-14.875-0.36-33.234-2.32-44.629-1.49-8.6914-11.47-9.0156-19.05-9.9218-8.49-1.0352-8.51-2.7266-8.51-10.793 0-8.6992 31.77-0.9063 38.13-0.457 16.1 1.082 32.49-0.2149 48.44-2.0821 6.77-0.7812 32.41-6.2969 24.71 9.1406-5.56 11.223-31.45-0.6523-34.14 17.168-1.66 11.25-1.77 29.043-1.77 42.922v27.011 23.192 34.586c13.22 23.82 44.18 41.859 69.74 23.078 8.01-5.883 14.83-15.742 16.55-28.145 0.74-5.371 2.03-10.679 2.03-16.207v-13.312-23.192-28.359c0-14.875-1.21-33.234-3.12-44.629-1.45-8.6914-11.2-9.0156-18.61-9.9218-8.26-1.0352-8.29-2.7266-8.29-10.793 0-8.6992 31-0.9063 37.24-0.457 15.7 1.082 31.72-0.2149 47.28-2.0821 6.63-0.7812 31.66-6.2969 24.16 9.1406-5.45 11.223-27.33-0.6523-29.95 17.168-1.64 11.25-1.25 29.043-1.25 42.922v27.011l-0.04 23.192v16.847c0 8.59-0.43 13.5 4.14 20.778 4.09 6.551 8.97 11.855 14.41 17.226 13.93 13.692 39.29 14.168 53.35 0.235 10.5-10.391 14.68-25.156 14.68-39.586v-15.5-23.192-28.359c0-14.875 1.84-33.234 0-44.629-1.46-8.6914-14.36-9.0156-21.63-9.9218-8.06-1.0352-8.08-2.7266-8.08-10.793 0-8.6992 30.28-0.9063 36.37-0.457 15.35 1.082 30.99-0.2149 46.22-2.0821 6.45-0.7812 30.89-6.2969 23.57 9.1406-5.3 11.223-26.69-0.6523-29.24 17.168-1.59 11.25-1.24 29.043-1.24 42.922v27.011l0.38 23.192"/>
  <path transform="matrix(.13333 0 0 -.13333 0 61.453)" d="m1702.5 190.21c-6.54 12.461-27.02 26.422-45.02 37.242-11.38 6.883-57.43 34.836-65.93 41.684-7.81 6.293-19.65 20.234-23.03 28.941-5.05 12.875-2.66 25.281-0.27 38.692 4.18 23.793 34.04 38.675 57.79 33.164 29.69-6.887 39.47-29.168 46.41-55.383 1.01-3.789 2.68-15.738 5.45-17.449 7.33-4.551 18.1-1.387 18.84 6.367 1.53 15.691-0.32 32.816-1.56 48.562-1.07 13.426-11.57 20.043-24.83 24.977-13.58 5.078-28.33 9.355-43.16 9.355-26.82 0-55.97-7.265-75.43-25.519-21.15-19.824-31.26-42.344-32.45-70.633-0.86-20.758 6.33-33.246 26.17-51.859 12-11.211 39.91-28.067 53.7-35.817 13.79-7.734 48.6-25.168 58.98-35.84 15.93-16.367 10.59-33.39 7.72-47.656-2.18-10.742-7.42-22.141-15.72-28.926-19.88-16.242-49.97-20.898-74.37-9.2774-27.79 13.23-42.87 38.633-42.87 68.133 0 5.859 0.22 12.746-7 12.746-10.61 0-10.8-4.231-10.8-13.625 0-17.129 1.05-34.16 1.05-51.289 0-27.461 39.8-33.543 61.2-36.824 26.09-4.0235 59.46-0.6758 82.2 11.523 19.27 10.332 33.62 26.277 42.93 45.098 3.83 7.734 9.17 21.523 8.36 37.039-0.82 15.5-1.83 24.152-8.36 36.574"/>
  <path transform="matrix(.13333 0 0 -.13333 0 61.453)" d="m1936.1 185.41"/>
  <path transform="matrix(.13333 0 0 -.13333 0 61.453)" d="m1860.7 204.1h-70.97c6.56 24.976 16.92 44.34 39.69 58.629 21.59 13.543 60.31-4.317 58.21-30.293 2.42-15.371-11.34-28.336-26.93-28.336zm-1.92 78.14c-51.1 6.817-94.55-24.804-112.36-68.359-2.61-6.445-4.41-10.934-5.9-17.516-1.22-5.39-2.5-10.957-2.5-10.957v-22.336c2.29-50.359 43.07-101.23 98.09-104.54 25.32-1.5352 57.33 9.6367 77.06 25.203 9.83 7.7461 17.79 15.605 21.89 26.575 3.44 9.168-0.74 18.574-9.3 6.336-11.71-16.817-39.96-25.059-59.67-27.645-18.32-2.4141-40.18 9.5313-51.62 22.285-10.28 11.445-28.56 30.039-26.15 74.121h147.72c0.13 0.371 0.37 1.094 1.05 3.067 11.38 48.14-31.25 87.5-78.31 93.765"/>
  <path transform="matrix(.13333 0 0 -.13333 0 61.453)" d="m2300.4 187.38c-22.99 6.504-30.91 11.25-41.83 21.285-12.91 11.856-11.62 28.633-1.25 44.957 10.38 16.336 50.98 15.942 62.38 4.215 6.44-6.555 12.51-14.856 15.5-23.332 1.68-4.727 2.58-12.758 6.97-15.371 9.89-5.918 12.16 6.57 12.79 12.906 1.04 10.891 2.6 31.832-5.88 39.184-9.39 8.113-28.31 12.519-46.34 12.343-18.03-0.168-37.37 0.161-56.99-10.386-19.64-10.539-33.66-37.367-34.44-47.145-0.79-9.765-3.35-19.914 8.82-34.808 12.18-14.875 51.16-28.45 76.1-34.934 24.94-6.492 37.96-33.398 26.65-58.223-3.97-8.7187-8.66-15.254-17.68-20.879-10.7-6.668-24.77-5.4297-36.34-4.7656-25.3 1.418-37 36.457-40.99 55.117-0.85 4.043-2.41 12.754-6.68 15.187-7.3 4.102-10.05-2.804-10.69-7.968-1.89-15.422 0-32.09 0-47.61 0-22.188 37.56-28.789 57.32-28.789 28.82 0 54.73 5.3242 75.14 24.582 19.86 18.66 24.44 36.075 20.36 58.125-4.09 22.051-39.9 39.785-62.92 46.309"/>
  <path transform="matrix(.13333 0 0 -.13333 0 61.453)" d="m2171.6 184.72s-1.45 37.699-5.44 48.382c-3.45 9.211-6.75 15.383-11.84 22.286-12.54 17.011-36.48 27.355-56.18 27.355-13.73 0-23.9-3.742-36.07-9.641-6.97-3.378-14.1-8.285-19.57-13.66-5.92-5.824-15.67-13.199-18.55-21.281v39.758c0 10.769-10.44 1.805-14.43-2.285-6.9-7.078-14.24-15.899-22.98-21.028-9.47-5.605-23.12-9.062-30.86-16.648-8.62-8.496 15.12-12.395 18.55-15.781 6.55-6.407 9.16-13.215 9.46-21.793 0.07-3.106-0.05-15.196-0.05-15.196l0.05-23.312v-30.762-10.762c0-14.851 2.3-32.871-13.85-39.707-5.55-2.3711-15.83-0.8086-17.28-7.957-2.17-10.734 5.38-10.539 14.14-9.0625 15.14 2.5078 30.53 4.2774 45.91 3.3281 7.18-0.457 39.43-9.2968 43.29-3.5625 9.67 14.316-20.19 14.141-26.83 23.867-6.2 9.0703-4.09 34.656-4.09 45.515 0 7.442 0.15 29.395 0.15 29.395l-0.15 23.312v10.137c0 17.555 3.36 25.004 13.63 38.473 7.77 10.203 26.83 14.754 38.94 15.219 28.6 1.058 44.23-13.735 48.69-40.075 0.65-3.808 1.78-24.515 1.78-24.515l0.32-22.551v-30.762-10.762c0-14.871 2.36-34.472-11.84-40-5.62-2.1953-15.83-0.8086-17.29-7.957-2.17-10.734 5.37-10.539 14.14-9.0625 15.15 2.5078 30.52 4.2774 45.91 3.3281 7.16-0.457 39.4-9.2968 43.26-3.5625 9.68 14.316-19.96 14.277-26.8 23.867-4.89 6.875-4.12 18.133-4.12 29.004v68.457"/>
 </g>
</svg>
