<?xml version="1.0" encoding="UTF-8"?>
<svg width="480" height="480" version="1.1" viewBox="0 0 480 480" xmlns="http://www.w3.org/2000/svg">
 <defs>
  <clipPath id="clip-0">
   <path d="m1.4961 1h18.504v64h-18.504z"/>
  </clipPath>
  <clipPath id="clip-2">
   <path d="m28 50h12v16.113h-12z"/>
  </clipPath>
  <clipPath id="clip-3">
   <path d="m12 60h8v6.1133h-8z"/>
  </clipPath>
  <clipPath id="clip-4">
   <path d="m1.4961 33h11.504v12h-11.504z"/>
  </clipPath>
  <clipPath id="clip-5">
   <path d="m1.4961 0h18.504v34h-18.504z"/>
  </clipPath>
 </defs>
 <g transform="matrix(6.8801 0 0 6.8801 77.851 12.035)" clip-path="url(#clip-0)">
  <path d="m15.031 64.926c-1.0273 0-1.9883-0.11328-2.5898-0.44922-1.9102-1.0625-3.4258-2.5156-4.5508-4.3516-1.125-1.8398-1.6875-3.7695-1.6875-5.8047 0-1.6406 0.34375-3.8906 1.0234-6.7578 0.48828-2.0312 0.73047-3.9375 0.73047-5.7266 0-2.1094-0.55078-3.8242-1.6562-5.1445-1.1016-1.3203-4.7656-3.4375-4.7656-3.4375s2.8594-2.1562 3.8086-2.9141c0.79297-0.66406 1.4297-1.5703 1.9023-2.7188 0.47266-1.1523 0.71094-2.375 0.71094-3.6758 0-1.7344-0.21875-3.5703-0.66406-5.5078-0.67969-2.8867-1.0234-5.0703-1.0234-6.5391 0-1.8594 0.52734-3.707 1.5898-5.543 1.0586-1.8359 2.3867-3.2266 4.1016-4.3008 0.76172-0.47656 2.4141-0.60938 4.0039-0.60938 1.9805 0 3.875 0.20703 3.875 0.20703-1.6133 0.31641-2.9688 0.89062-4.0742 1.7266-0.72656 0.61328-1.3047 1.3906-1.7344 2.332-0.43359 0.94141-0.64453 1.9023-0.64453 2.8867 0 1.6602 0.27344 3.6445 0.82812 5.9453 0.52734 2.4492 0.79297 4.5781 0.79297 6.3906 0 1.2969-0.25 2.5977-0.74609 3.8945-0.49609 1.2969-1.2383 2.5-2.2344 3.6016-0.94531 1.1484-1.9844 2.043-3.1094 2.6758-1.125 0.64062-2.707 1.2266-4.7344 1.7695v0.14453c2.0508 0.66016 3.6797 1.3477 4.8789 2.0547 1.2031 0.71094 2.2578 1.6055 3.1641 2.6836 0.92969 1.0547 1.6328 2.2305 2.1211 3.5234 0.48047 1.3008 0.72656 2.582 0.72656 3.8594 0 1.3945-0.26562 3.3047-0.79297 5.7305-0.55469 2.4219-0.83203 4.5312-0.83203 6.3125 0 1.2031 0.26172 2.3281 0.78125 3.3828 0.51562 1.0508 1.1875 1.8516 2 2.3867 0.77344 0.63672 1.9766 1.1133 3.6094 1.4336 0 0-2.5742 0.53906-4.8086 0.53906" fill="#c5e3f5"/>
 </g>
 <g stroke-width="6.8801">
  <path d="m301.99 458.73c-13.626 0-26.66-1.3975-26.66-1.3975 11.1-2.2038 20.425-6.1545 28.031-11.879 4.9988-4.2194 9.0033-9.5676 11.933-16.045 2.9832-6.477 4.4613-13.115 4.4613-19.861 0-11.449-1.9082-25.075-5.7245-40.904-3.6282-16.851-5.4557-31.498-5.4557-43.995 0-8.9226 1.72-17.845 5.1332-26.768 3.4132-8.9495 8.5195-17.2 15.373-24.779 6.5039-7.9014 13.68-14.056 21.42-18.437 7.7401-4.3807 18.598-8.4389 32.546-12.148v-0.99439c-14.11-4.5688-25.29-9.272-33.567-14.163-8.2776-4.8644-15.534-11.019-21.742-18.437-6.4232-7.2564-11.261-15.346-14.593-24.269-3.3326-8.9226-5.0257-17.765-5.0257-26.526 0-9.5945 1.8275-22.737 5.4557-39.426 3.8163-16.69 5.7245-31.176 5.7245-43.458 0-8.2508-1.8006-16.018-5.3751-23.274-3.5476-7.2026-8.1433-12.712-13.76-16.394-5.3213-4.3807-13.599-7.6595-24.833-9.8633 0 0 17.711-3.7357 33.084-3.7357 7.0682 0 13.68 0.80627 17.818 3.1176 13.142 7.3101 23.57 17.281 31.337 29.912 7.7401 12.658 11.583 25.935 11.583 39.937 0 11.288-2.365 26.768-7.0414 46.521-3.3594 13.948-4.9988 27.09-4.9988 39.399 0 14.486 3.7626 26.284 11.368 35.395 7.5789 9.0839 32.788 23.65 32.788 23.65s-19.673 14.835-26.204 20.049c-5.4557 4.542-9.8095 10.777-13.088 18.705-3.2519 7.9283-4.8644 16.34-4.8644 25.29 0 11.933 1.4782 24.564 4.542 37.868 4.6763 19.888 7.0414 34.884 7.0414 44.99 0 12.82-3.6282 25.532-10.911 38.163-7.2832 12.631-16.448 22.199-28.246 29.563-5.2407 3.3057-16.582 4.1926-27.547 4.1926" fill="#c5e3f5"/>
  <path d="m290.11 12.035c-5.0257 0-8.8152 1.1556-11.422 3.4669-2.6069 2.2844-3.8969 5.3482-3.8969 9.1645 0 1.6663 0.32247 3.1713 0.88688 4.5957 4.327 2.4188 8.627 4.8913 12.766 7.5789 0.91377 0.1075 1.5319 0.34938 2.5532 0.43001 2.8488 0.29563 5.5095 0.94064 8.0895 1.7469l15.803-21.715c-7.4176-3.3863-15.615-5.2676-24.779-5.2676" fill="#bdcfe5"/>
  <path d="m314.89 17.303-15.803 21.715c6.3157 2.0157 11.852 5.5363 16.555 10.723 3.9507 4.3538 6.5576 9.5408 8.1433 15.373 10.051 9.7827 19.162 20.425 27.305 31.901v-19.485c0-19.834-7.122-36.658-21.339-50.472-4.4613-4.1926-9.487-7.337-14.862-9.7558" fill="#9dc0e8"/>
  <path d="m393.37 227.44 0.0807 2.0963c0 7.3639-0.34937 14.647-1.0213 21.85 2.3382-0.72562 4.2732-1.6663 5.5364-2.9025 2.2038-2.2038 3.3057-5.2138 3.3057-9.0033 0-4.0044-1.1019-7.122-3.3057-9.3258-1.1019-1.1019-2.6338-2.0157-4.5957-2.7144" fill="#6babe1"/>
 </g>
 <g transform="matrix(6.8801 0 0 6.8801 77.851 12.035)" clip-path="url(#clip-2)">
  <path d="m39.715 50.875c-1.1133 1.5664-2.3516 3.0312-3.7109 4.3789v1.2969c0 1.6016-0.47656 2.9414-1.4219 4.0156-0.94531 1.0781-2.1445 1.6914-3.6016 1.8359-0.92969 0.08594-1.5273 0.27344-1.7891 0.56641-0.37891 0.34766-0.56641 0.78516-0.56641 1.3086 0 0.52734 0.1875 0.96094 0.56641 1.3125 0.37891 0.34766 0.91797 0.52344 1.6133 0.52344 2.4453 0 4.543-0.91016 6.2891-2.7305 1.7461-1.8203 2.6211-4.0977 2.6211-6.832v-5.6758" fill="#3973c2"/>
 </g>
 <g stroke-width="6.8801">
  <path d="m275.68 29.262c0.64502 1.6394 1.6125 3.1176 3.01 4.4076 1.6663 1.505 5.1601 2.4994 9.7558 3.1713-4.1388-2.6875-8.4389-5.1601-12.766-7.5789" fill="#cbd8eb"/>
  <path d="m323.79 65.114c1.075 3.9507 1.7738 8.1164 1.7738 12.712v96.241l25.532-8.2776v-68.774c-8.1433-11.476-17.254-22.118-27.305-31.901" fill="#b9d4f0"/>
  <path d="m351.09 165.79-25.532 8.2776v11.61c0 12.443 2.2844 23.14 6.907 32.17 3.6013 6.7995 10.401 14.002 20.425 21.635-10.213 7.6057-17.335 15.265-21.339 22.979-4.0044 7.7132-5.9932 17.872-5.9932 30.477v99.251c9.3526-9.272 17.872-19.35 25.532-30.127v-69.124c0-10.992 3.2519-20.264 9.7558-27.789 6.5039-7.4982 14.97-11.664 25.397-12.443 2.4188-0.26874 4.3807-0.75252 6.1814-1.3169 0.67192-7.2026 1.0213-14.486 1.0213-21.85l-0.0807-2.0963c-1.9619-0.69876-4.3269-1.1825-7.122-1.4782-10.213-0.80627-18.625-4.972-25.236-12.497-6.6114-7.4982-9.917-16.77-9.917-27.789v-19.888" fill="#9dc0e8"/>
 </g>
 <g transform="matrix(6.8801 0 0 6.8801 77.851 12.035)" clip-path="url(#clip-3)">
  <path d="m14.289 60.957-2.2461 3.0898c1.5156 1.3672 3.3828 2.0664 5.6094 2.0664 0.72656 0 1.2812-0.16797 1.6602-0.50391 0.37891-0.33203 0.56641-0.77734 0.56641-1.332 0-0.52344-0.1875-0.96094-0.56641-1.3086-0.29297-0.26172-0.89062-0.4375-1.793-0.52344-1.2617-0.12891-2.332-0.64062-3.2305-1.4883" fill="#b9d4f0"/>
 </g>
 <path d="m163.85 307.72-25.532 8.3045v85.383c0 19.834 7.0951 36.658 21.312 50.472l1.075 0.80626 15.453-21.258-2.3919-2.2307c-6.6114-7.3101-9.917-16.69-9.917-28.085v-93.392" fill="#9dc0e8" stroke-width="6.8801"/>
 <g transform="matrix(6.8801 0 0 6.8801 77.851 12.035)" clip-path="url(#clip-4)">
  <path d="m9.2305 33.629h-7.6445c0.074218 0.30469 0.1875 0.57812 0.39062 0.78125 0.32031 0.32031 0.88672 0.52344 1.7031 0.61328 1.4844 0.11328 2.707 0.71875 3.668 1.8125 0.96094 1.0898 1.4414 2.4375 1.4414 4.0352v3.3125l3.7109-1.207v-2.1055c0-1.8047-0.33594-3.3594-1.0039-4.668-0.43359-0.82031-1.1992-1.6758-2.2656-2.5742" fill="#6babe1"/>
 </g>
 <g transform="matrix(6.8801 0 0 6.8801 77.851 12.035)" clip-path="url(#clip-5)">
  <path d="m8.5273 33.059c1.4844-1.1094 2.5156-2.2227 3.0977-3.3438s0.875-2.5977 0.875-4.4297v-15.723c0-1.5977 0.47266-2.9375 1.418-4.0156 0.94531-1.0781 2.1484-1.6875 3.6016-1.8359 0.93359-0.085938 1.5312-0.27344 1.793-0.56641 0.37891-0.34766 0.56641-0.78516 0.56641-1.3086 0-0.52734-0.1875-0.96094-0.56641-1.3125-0.37891-0.34766-0.91797-0.52344-1.6172-0.52344-2.4453 0-4.5391 0.91016-6.2891 2.7305-1.7461 1.8203-2.6172 4.0977-2.6172 6.832v15.723c0 1.6016-0.47266 2.9453-1.4219 4.0391-0.94531 1.0898-2.1758 1.6953-3.6875 1.8125-0.81641 0.08594-1.3828 0.28906-1.7031 0.60938-0.32031 0.32031-0.48047 0.75781-0.48047 1.3125 0 0.21484 0.042968 0.39062 0.089844 0.57031h7.6445c-0.22656-0.1875-0.44922-0.37891-0.70312-0.57031" fill="#1c3459"/>
 </g>
</svg>
